STARTFONT 2.1
COMMENT Copyright (C) 1990-1991 EWT Consulting
COMMENT Portions Copyright (C) 1994-1995 Cronyx Ltd.
COMMENT Changes Copyright (C) 1996 by Andrey A. Chernov, Moscow, Russia.
COMMENT Modified by Serge Vakulenko, <vak@cronyx.ru>
COMMENT This software may be used, modified, copied, distributed, and sold,
COMMENT in both source and binary form provided that the copyright
COMMENT and these terms are retained. Under no circumstances is the author
COMMENT responsible for the proper functioning of this software, nor does
COMMENT the author assume any responsibility for damages incurred with its use.
COMMENT $XFree86: xc/fonts/bdf/cyrillic/crox6ho.bdf,v 3.2 1996/09/01 12:18:51 dawes Exp $
FONT -Cronyx-Helvetica-Medium-O-Normal--34-240-100-100-P-130-KOI8-R
SIZE 24 96 96
FONTBOUNDINGBOX 44 37 -1 -8
STARTPROPERTIES 19
DEFAULT_CHAR 32
FONT_ASCENT 29
FONT_DESCENT 8
SPACING "P"
FONTNAME_REGISTRY ""
FOUNDRY "Cronyx"
FAMILY_NAME "Helvetica"
WEIGHT_NAME "Medium"
SLANT "O"
SETWIDTH_NAME "Normal"
ADD_STYLE_NAME ""
AVERAGE_WIDTH 130
CHARSET_REGISTRY "KOI8"
CHARSET_ENCODING "R"
PIXEL_SIZE 34
POINT_SIZE 240
RESOLUTION_X 100
RESOLUTION_Y 100
COPYRIGHT "Copyright (C) 1990, 1991 EWT Consulting, Portions Copyright (C) 1994 Cronyx Ltd., Portions Copyright (C) 1996 by Andrey A. Chernov, Moscow, Russia."
ENDPROPERTIES
CHARS 224
STARTCHAR space
ENCODING 32
SWIDTH 243 0
DWIDTH 9 0
BBX 21 37 -1 -8
BITMAP
000000
000000
000000
000000
000000
000000
000000
000000
000000
000000
000000
000000
000000
000000
000000
000000
000000
000000
000000
000000
000000
000000
000000
000000
000000
000000
000000
000000
000000
000000
000000
000000
000000
000000
000000
000000
000000
ENDCHAR
STARTCHAR exclam
ENCODING 33
SWIDTH 243 0
DWIDTH 9 0
BBX 21 37 -1 -8
BITMAP
000000
000000
000000
000000
000000
000000
000380
000700
000700
000700
000E00
000E00
000E00
001C00
001C00
001C00
003800
003800
003800
007000
002000
002000
004000
000000
000000
000000
01C000
01C000
038000
000000
000000
000000
000000
000000
000000
000000
000000
ENDCHAR
STARTCHAR quotedbl
ENCODING 34
SWIDTH 297 0
DWIDTH 11 0
BBX 23 37 -1 -8
BITMAP
000000
000000
000000
000000
000000
000000
000E38
001C70
001C70
001C70
0038E0
001040
001040
002080
000000
000000
000000
000000
000000
000000
000000
000000
000000
000000
000000
000000
000000
000000
000000
000000
000000
000000
000000
000000
000000
000000
000000
ENDCHAR
STARTCHAR numbersign
ENCODING 35
SWIDTH 486 0
DWIDTH 18 0
BBX 30 37 -1 -8
BITMAP
00000000
00000000
00000000
00000000
00000000
00000000
000030C0
00006180
00006180
00006180
0001C700
00018600
001FFFC0
003FFF80
00030C00
00071C00
000C3000
000C3000
000C3000
0038E000
0030C000
01FFFC00
03FFF800
00618000
00E38000
01860000
01860000
01860000
030C0000
00000000
00000000
00000000
00000000
00000000
00000000
00000000
00000000
ENDCHAR
STARTCHAR dollar
ENCODING 36
SWIDTH 486 0
DWIDTH 18 0
BBX 30 37 -1 -8
BITMAP
00000000
00000000
00000000
00000000
00001800
00001800
00007E00
0003FF00
0007B780
00073380
001C6380
001C6380
001C6000
001CC000
001EC000
000FC000
000FE000
0003F800
0001FC00
00033C00
00031C00
00030E00
03861C00
03861C00
03861C00
038C7000
03CCF000
01FFE000
00FF0000
00180000
00180000
00300000
00000000
00000000
00000000
00000000
00000000
ENDCHAR
STARTCHAR percent
ENCODING 37
SWIDTH 756 0
DWIDTH 28 0
BBX 40 37 -1 -8
BITMAP
0000000000
0000000000
0000000000
0000000000
0000000000
0000000000
0000F00700
0007F80C00
0006181C00
000C0C1800
0018187000
0018186000
001818E000
0018618000
001FE38000
0007830000
00000E0000
00000C0000
00001C0000
0000307800
000071FE00
0000618600
0001C60600
0001860600
0003860600
00060C0C00
000E061800
000C07F800
003803C000
0000000000
0000000000
0000000000
0000000000
0000000000
0000000000
0000000000
0000000000
ENDCHAR
STARTCHAR ampersand
ENCODING 38
SWIDTH 594 0
DWIDTH 22 0
BBX 34 37 -1 -8
BITMAP
0000000000
0000000000
0000000000
0000000000
0000000000
0000000000
0000180000
0000FC0000
0001FE0000
0001CE0000
00070E0000
00070E0000
00070E0000
0007380000
0007F80000
0003F00000
000FC00000
001FE00000
003CF1C000
0070F38000
00F07F0000
00E03F0000
01C03C0000
01C01C0000
01E03E0000
01E0FE0000
01FFEF0000
00FFC78000
007E078000
0000000000
0000000000
0000000000
0000000000
0000000000
0000000000
0000000000
0000000000
ENDCHAR
STARTCHAR quoteright
ENCODING 39
SWIDTH 189 0
DWIDTH 7 0
BBX 19 37 -1 -8
BITMAP
000000
000000
000000
000000
000000
000000
000700
000E00
000E00
000E00
001C00
000800
000800
001000
000000
000000
000000
000000
000000
000000
000000
000000
000000
000000
000000
000000
000000
000000
000000
000000
000000
000000
000000
000000
000000
000000
000000
ENDCHAR
STARTCHAR parenleft
ENCODING 40
SWIDTH 297 0
DWIDTH 11 0
BBX 23 37 -1 -8
BITMAP
000000
000000
000000
000000
000000
000000
000018
000070
0000E0
0001C0
000380
000700
000700
000E00
001C00
001C00
003800
003800
003800
007000
007000
007000
00E000
00E000
00E000
01C000
01C000
01C000
01C000
01C000
01C000
01C000
01C000
00E000
00E000
006000
000000
ENDCHAR
STARTCHAR parenright
ENCODING 41
SWIDTH 297 0
DWIDTH 11 0
BBX 23 37 -1 -8
BITMAP
000000
000000
000000
000000
000000
000000
000C00
001C00
000E00
000700
000E00
000700
000700
000E00
000700
000700
000E00
000E00
000E00
001C00
001C00
001C00
003800
003800
003800
007000
007000
007000
01C000
01C000
01C000
070000
070000
0E0000
380000
300000
000000
ENDCHAR
STARTCHAR asterisk
ENCODING 42
SWIDTH 324 0
DWIDTH 12 0
BBX 24 37 -1 -8
BITMAP
000000
000000
000000
000000
000000
000000
0000C0
000180
000DB0
001FF8
000FC0
000780
000FC0
0039C0
001080
000000
000000
000000
000000
000000
000000
000000
000000
000000
000000
000000
000000
000000
000000
000000
000000
000000
000000
000000
000000
000000
000000
ENDCHAR
STARTCHAR plus
ENCODING 43
SWIDTH 513 0
DWIDTH 19 0
BBX 31 37 -1 -8
BITMAP
00000000
00000000
00000000
00000000
00000000
00000000
00000000
00000000
00003800
00003800
00007000
00007000
00007000
0000E000
0000E000
0000E000
00FFFF80
00FFFF80
00FFFF80
00038000
00038000
00038000
00070000
00070000
00070000
000E0000
000E0000
00000000
00000000
00000000
00000000
00000000
00000000
00000000
00000000
00000000
00000000
ENDCHAR
STARTCHAR comma
ENCODING 44
SWIDTH 243 0
DWIDTH 9 0
BBX 21 37 -1 -8
BITMAP
000000
000000
000000
000000
000000
000000
000000
000000
000000
000000
000000
000000
000000
000000
000000
000000
000000
000000
000000
000000
000000
000000
000000
000000
000000
000000
01C000
01C000
038000
008000
010000
040000
000000
000000
000000
000000
000000
ENDCHAR
STARTCHAR minus
ENCODING 45
SWIDTH 270 0
DWIDTH 10 0
BBX 22 37 -1 -8
BITMAP
000000
000000
000000
000000
000000
000000
000000
000000
000000
000000
000000
000000
000000
000000
000000
000000
000000
000000
000000
000000
000000
01FE00
03FC00
000000
000000
000000
000000
000000
000000
000000
000000
000000
000000
000000
000000
000000
000000
ENDCHAR
STARTCHAR period
ENCODING 46
SWIDTH 243 0
DWIDTH 9 0
BBX 21 37 -1 -8
BITMAP
000000
000000
000000
000000
000000
000000
000000
000000
000000
000000
000000
000000
000000
000000
000000
000000
000000
000000
000000
000000
000000
000000
000000
000000
000000
000000
01C000
01C000
038000
000000
000000
000000
000000
000000
000000
000000
000000
ENDCHAR
STARTCHAR slash
ENCODING 47
SWIDTH 243 0
DWIDTH 9 0
BBX 21 37 -1 -8
BITMAP
000000
000000
000000
000000
000000
000000
000070
0000E0
0000E0
0001C0
000380
000380
000700
000E00
000E00
001C00
003800
003800
003800
00E000
00E000
00E000
038000
038000
038000
070000
0E0000
0E0000
1C0000
000000
000000
000000
000000
000000
000000
000000
000000
ENDCHAR
STARTCHAR zero
ENCODING 48
SWIDTH 486 0
DWIDTH 18 0
BBX 30 37 -1 -8
BITMAP
00000000
00000000
00000000
00000000
00000000
00000000
00003C00
0001FE00
0003FF00
00078780
000E0700
001E0780
001C0380
00380700
00380700
00380700
00700E00
00700E00
00700E00
00E01C00
00E01C00
00E01C00
01C03800
01E07800
00E07000
01E1E000
00FFC000
007F8000
003C0000
00000000
00000000
00000000
00000000
00000000
00000000
00000000
00000000
ENDCHAR
STARTCHAR one
ENCODING 49
SWIDTH 432 0
DWIDTH 16 0
BBX 28 37 -1 -8
BITMAP
00000000
00000000
00000000
00000000
00000000
00000000
00001800
00003000
00007000
0000F000
0007E000
0007E000
0007E000
0001C000
0001C000
0001C000
00038000
00038000
00038000
00070000
00070000
00070000
000E0000
000E0000
000E0000
001C0000
001C0000
001C0000
00380000
00000000
00000000
00000000
00000000
00000000
00000000
00000000
00000000
ENDCHAR
STARTCHAR two
ENCODING 50
SWIDTH 486 0
DWIDTH 18 0
BBX 30 37 -1 -8
BITMAP
00000000
00000000
00000000
00000000
00000000
00000000
00003C00
0001FE00
0003FF00
00078780
000E0700
001C0380
001C0380
00000700
00000700
00000E00
00003C00
0000F800
0003F000
000F8000
001E0000
003C0000
00F00000
00E00000
01C00000
03800000
07FFF800
07FFF800
0FFFF000
00000000
00000000
00000000
00000000
00000000
00000000
00000000
00000000
ENDCHAR
STARTCHAR three
ENCODING 51
SWIDTH 486 0
DWIDTH 18 0
BBX 30 37 -1 -8
BITMAP
00000000
00000000
00000000
00000000
00000000
00000000
00003C00
0001FE00
0003FF00
00078780
000E0700
001C0380
001C0380
00000700
00000E00
0000FE00
0001F800
0001FC00
00001E00
00001C00
00000E00
00000E00
03801C00
03801C00
01C03800
03C0F000
01FFE000
00FFC000
007E0000
00000000
00000000
00000000
00000000
00000000
00000000
00000000
00000000
ENDCHAR
STARTCHAR four
ENCODING 52
SWIDTH 486 0
DWIDTH 18 0
BBX 30 37 -1 -8
BITMAP
00000000
00000000
00000000
00000000
00000000
00000000
00000780
00001F00
00001F00
00003F00
0000FE00
0000EE00
0001EE00
00079C00
00071C00
000F1C00
003C3800
00383800
00783800
00E07000
01E07000
01FFFE00
03FFFC00
03FFFC00
0000E000
0001C000
0001C000
0001C000
00038000
00000000
00000000
00000000
00000000
00000000
00000000
00000000
00000000
ENDCHAR
STARTCHAR five
ENCODING 53
SWIDTH 486 0
DWIDTH 18 0
BBX 30 37 -1 -8
BITMAP
00000000
00000000
00000000
00000000
00000000
00000000
0001FFE0
0003FFC0
0003FFC0
00038000
000E0000
000E0000
000E0000
001DF800
003FFE00
003FFF00
00781E00
00700F00
00000700
00000E00
00000E00
00000E00
03801C00
03801C00
01C03800
03C0F000
01FFE000
00FFC000
007E0000
00000000
00000000
00000000
00000000
00000000
00000000
00000000
00000000
ENDCHAR
STARTCHAR six
ENCODING 54
SWIDTH 486 0
DWIDTH 18 0
BBX 30 37 -1 -8
BITMAP
00000000
00000000
00000000
00000000
00000000
00000000
00003E00
0001FF00
0003FF80
0007C780
000E0380
001E0380
001C0000
00380000
0038F000
003BFC00
007FFC00
007E3E00
00780E00
00F01E00
00E00E00
00E00E00
01C01C00
01E03C00
00E03800
01F1F000
00FFE000
007FC000
003E0000
00000000
00000000
00000000
00000000
00000000
00000000
00000000
00000000
ENDCHAR
STARTCHAR seven
ENCODING 55
SWIDTH 486 0
DWIDTH 18 0
BBX 30 37 -1 -8
BITMAP
00000000
00000000
00000000
00000000
00000000
00000000
000FFFF0
001FFFE0
001FFFE0
000001E0
00000780
00000F00
00000E00
00003C00
00003800
00007800
0000E000
0001E000
0001C000
00038000
00078000
00070000
000E0000
001E0000
001C0000
00380000
00380000
00380000
00700000
00000000
00000000
00000000
00000000
00000000
00000000
00000000
00000000
ENDCHAR
STARTCHAR eight
ENCODING 56
SWIDTH 486 0
DWIDTH 18 0
BBX 30 37 -1 -8
BITMAP
00000000
00000000
00000000
00000000
00000000
00000000
00003C00
0001FE00
0003FF00
00078780
000E0700
001C0380
001C0380
00380700
001C0E00
001FFE00
001FF800
003FFC00
00781E00
00E01C00
01C00E00
01C00E00
03801C00
03801C00
01C03800
03C0F000
01FFE000
00FFC000
007E0000
00000000
00000000
00000000
00000000
00000000
00000000
00000000
00000000
ENDCHAR
STARTCHAR nine
ENCODING 57
SWIDTH 486 0
DWIDTH 18 0
BBX 30 37 -1 -8
BITMAP
00000000
00000000
00000000
00000000
00000000
00000000
00007C00
0003FE00
0007FF00
000F8F80
001C0700
003C0780
00380380
00700700
00700700
00780F00
00701E00
007C7E00
003FFE00
003FDC00
000F1C00
00001C00
00003800
01C07800
01C07000
01E3E000
01FFC000
00FF8000
007C0000
00000000
00000000
00000000
00000000
00000000
00000000
00000000
00000000
ENDCHAR
STARTCHAR colon
ENCODING 58
SWIDTH 243 0
DWIDTH 9 0
BBX 21 37 -1 -8
BITMAP
000000
000000
000000
000000
000000
000000
000000
000000
000000
000000
000000
000000
000000
001C00
001C00
001C00
000000
000000
000000
000000
000000
000000
000000
000000
000000
000000
01C000
01C000
038000
000000
000000
000000
000000
000000
000000
000000
000000
ENDCHAR
STARTCHAR semicolon
ENCODING 59
SWIDTH 243 0
DWIDTH 9 0
BBX 21 37 -1 -8
BITMAP
000000
000000
000000
000000
000000
000000
000000
000000
000000
000000
000000
000000
000000
001C00
001C00
001C00
000000
000000
000000
000000
000000
000000
000000
000000
000000
000000
01C000
01C000
038000
008000
010000
040000
000000
000000
000000
000000
000000
ENDCHAR
STARTCHAR less
ENCODING 60
SWIDTH 513 0
DWIDTH 19 0
BBX 31 37 -1 -8
BITMAP
00000000
00000000
00000000
00000000
00000000
00000000
00000000
00000000
00000000
00000000
000000C0
000003C0
00000FC0
00007E00
0001F800
0007E000
003F0000
00FC0000
00FC0000
007E0000
001F8000
0007E000
0003F000
0000FC00
00003C00
00001800
00000000
00000000
00000000
00000000
00000000
00000000
00000000
00000000
00000000
00000000
00000000
ENDCHAR
STARTCHAR equal
ENCODING 61
SWIDTH 513 0
DWIDTH 19 0
BBX 31 37 -1 -8
BITMAP
00000000
00000000
00000000
00000000
00000000
00000000
00000000
00000000
00000000
00000000
00000000
00000000
00000000
007FFFC0
007FFFC0
007FFFC0
00000000
00000000
00000000
01FFFF00
01FFFF00
01FFFF00
00000000
00000000
00000000
00000000
00000000
00000000
00000000
00000000
00000000
00000000
00000000
00000000
00000000
00000000
00000000
ENDCHAR
STARTCHAR greater
ENCODING 62
SWIDTH 513 0
DWIDTH 19 0
BBX 31 37 -1 -8
BITMAP
00000000
00000000
00000000
00000000
00000000
00000000
00000000
00000000
00000000
00000000
00180000
001E0000
001F8000
000FC000
0003F000
0000FC00
00007E00
00001F80
00001F80
0000FC00
0003F000
000FC000
007E0000
01F80000
01E00000
03000000
00000000
00000000
00000000
00000000
00000000
00000000
00000000
00000000
00000000
00000000
00000000
ENDCHAR
STARTCHAR question
ENCODING 63
SWIDTH 459 0
DWIDTH 17 0
BBX 29 37 -1 -8
BITMAP
00000000
00000000
00000000
00000000
00000000
00000000
00007C00
0003FE00
0007FF00
000F0780
001C0700
00380380
00380380
00000700
00000700
00000E00
00003C00
00007800
0000F000
0003C000
00038000
00070000
000E0000
00000000
00000000
00000000
001C0000
001C0000
00380000
00000000
00000000
00000000
00000000
00000000
00000000
00000000
00000000
ENDCHAR
STARTCHAR at
ENCODING 64
SWIDTH 810 0
DWIDTH 30 0
BBX 42 37 -1 -8
BITMAP
000000000000
000000000000
000000000000
000000000000
000000000000
000000000000
000001FC0000
00001FFF0000
00007C07C000
0000E000E000
00038000E000
000700007000
000E01E03000
00180FEC3000
00301C3C3000
003030181800
006060303000
00C0C0303000
00C0C0603000
018300C06000
018300C0C000
01830180C000
018607030000
01830F870000
0181FDFE0000
0181F1F00000
01C000000000
00E000000000
00F000000000
007C03800000
001FFF000000
0007F8000000
000000000000
000000000000
000000000000
000000000000
000000000000
ENDCHAR
STARTCHAR A
ENCODING 65
SWIDTH 594 0
DWIDTH 22 0
BBX 34 37 -1 -8
BITMAP
0000000000
0000000000
0000000000
0000000000
0000000000
0000000000
00000F8000
00001F0000
00003F8000
00003F8000
0000770000
0000F78000
0000E38000
0001C70000
0003C78000
0003838000
000F078000
000E038000
000E038000
003C078000
0038038000
003FFF8000
00FFFF8000
00FFFF8000
01E003C000
0380038000
0380038000
078003C000
0E00038000
0000000000
0000000000
0000000000
0000000000
0000000000
0000000000
0000000000
0000000000
ENDCHAR
STARTCHAR B
ENCODING 66
SWIDTH 567 0
DWIDTH 21 0
BBX 33 37 -1 -8
BITMAP
0000000000
0000000000
0000000000
0000000000
0000000000
0000000000
0003FFC000
0007FFE000
0007FFF000
0007007000
000E007000
000E007000
000E007000
001C00E000
001C01C000
001FFFC000
003FFF0000
003FFF8000
003803C000
0070038000
007001C000
007001C000
00E0038000
00E0038000
00E0078000
01C01E0000
01FFFE0000
01FFFC0000
03FFE00000
0000000000
0000000000
0000000000
0000000000
0000000000
0000000000
0000000000
0000000000
ENDCHAR
STARTCHAR C
ENCODING 67
SWIDTH 621 0
DWIDTH 23 0
BBX 35 37 -1 -8
BITMAP
0000000000
0000000000
0000000000
0000000000
0000000000
0000000000
000007E000
00007FF800
0000FFFC00
0001F03E00
0007801E00
000F000F00
000E000700
001C000E00
0038000000
0038000000
0070000000
0070000000
0070000000
00E0000000
00E0000000
0070003800
00E0007000
00F000F000
007801E000
007C0F8000
003FFF0000
001FFE0000
0007E00000
0000000000
0000000000
0000000000
0000000000
0000000000
0000000000
0000000000
0000000000
ENDCHAR
STARTCHAR D
ENCODING 68
SWIDTH 621 0
DWIDTH 23 0
BBX 35 37 -1 -8
BITMAP
0000000000
0000000000
0000000000
0000000000
0000000000
0000000000
0003FF8000
0007FFE000
0007FFF000
000700F800
000E007800
000E003C00
000E001C00
001C003800
001C001C00
001C001C00
0038003800
0038003800
0038003800
0070007000
0070007000
007000E000
00E001C000
00E003C000
00E0078000
01C03E0000
01FFFC0000
01FFF80000
03FF800000
0000000000
0000000000
0000000000
0000000000
0000000000
0000000000
0000000000
0000000000
ENDCHAR
STARTCHAR E
ENCODING 69
SWIDTH 567 0
DWIDTH 21 0
BBX 33 37 -1 -8
BITMAP
0000000000
0000000000
0000000000
0000000000
0000000000
0000000000
0003FFFE00
0007FFFC00
0007FFFC00
0007000000
000E000000
000E000000
000E000000
001C000000
001C000000
001FFFC000
003FFF8000
003FFF8000
0038000000
0070000000
0070000000
0070000000
00E0000000
00E0000000
00E0000000
01C0000000
01FFFF0000
01FFFF0000
03FFFE0000
0000000000
0000000000
0000000000
0000000000
0000000000
0000000000
0000000000
0000000000
ENDCHAR
STARTCHAR F
ENCODING 70
SWIDTH 540 0
DWIDTH 20 0
BBX 32 37 -1 -8
BITMAP
00000000
00000000
00000000
00000000
00000000
00000000
0003FFFE
0007FFFC
0007FFFC
00070000
000E0000
000E0000
000E0000
001C0000
001C0000
001FFF80
003FFF00
003FFF00
00380000
00700000
00700000
00700000
00E00000
00E00000
00E00000
01C00000
01C00000
01C00000
03800000
00000000
00000000
00000000
00000000
00000000
00000000
00000000
00000000
ENDCHAR
STARTCHAR G
ENCODING 71
SWIDTH 675 0
DWIDTH 25 0
BBX 37 37 -1 -8
BITMAP
0000000000
0000000000
0000000000
0000000000
0000000000
0000000000
000007E000
00007FF800
0000FFFC00
0001F03E00
0007801E00
000F000F00
000E000700
001C000E00
0038000000
0038000000
0070000000
007007FC00
007007FC00
00E00FF800
00E0003800
0070003800
00E000F000
00F000F000
007801F000
007C0FE000
003FFEE000
001FFCE000
0007E1C000
0000000000
0000000000
0000000000
0000000000
0000000000
0000000000
0000000000
0000000000
ENDCHAR
STARTCHAR H
ENCODING 72
SWIDTH 621 0
DWIDTH 23 0
BBX 35 37 -1 -8
BITMAP
0000000000
0000000000
0000000000
0000000000
0000000000
0000000000
0003800700
0007000E00
0007000E00
0007000E00
000E001C00
000E001C00
000E001C00
001C003800
001C003800
001FFFF800
003FFFF000
003FFFF000
0038007000
007000E000
007000E000
007000E000
00E001C000
00E001C000
00E001C000
01C0038000
01C0038000
01C0038000
0380070000
0000000000
0000000000
0000000000
0000000000
0000000000
0000000000
0000000000
0000000000
ENDCHAR
STARTCHAR I
ENCODING 73
SWIDTH 216 0
DWIDTH 8 0
BBX 20 37 -1 -8
BITMAP
000000
000000
000000
000000
000000
000000
000380
000700
000700
000700
000E00
000E00
000E00
001C00
001C00
001C00
003800
003800
003800
007000
007000
007000
00E000
00E000
00E000
01C000
01C000
01C000
038000
000000
000000
000000
000000
000000
000000
000000
000000
ENDCHAR
STARTCHAR J
ENCODING 74
SWIDTH 432 0
DWIDTH 16 0
BBX 28 37 -1 -8
BITMAP
00000000
00000000
00000000
00000000
00000000
00000000
00000380
00000700
00000700
00000700
00000E00
00000E00
00000E00
00001C00
00001C00
00001C00
00003800
00003800
00003800
00007000
01C07000
01C07000
0380E000
0380E000
03C1E000
03C78000
03FF8000
01FF0000
00F80000
00000000
00000000
00000000
00000000
00000000
00000000
00000000
00000000
ENDCHAR
STARTCHAR K
ENCODING 75
SWIDTH 567 0
DWIDTH 21 0
BBX 33 37 -1 -8
BITMAP
0000000000
0000000000
0000000000
0000000000
0000000000
0000000000
0007003C00
000E00F000
000E01E000
000E03C000
001C0F0000
001C1E0000
001C3C0000
0038F00000
0039E00000
003BC00000
007F800000
007FC00000
007DE00000
00F1E00000
00E0F00000
00E0780000
01C0780000
01C03C0000
01C01E0000
03801E0000
03800F0000
0380078000
0700070000
0000000000
0000000000
0000000000
0000000000
0000000000
0000000000
0000000000
0000000000
ENDCHAR
STARTCHAR L
ENCODING 76
SWIDTH 486 0
DWIDTH 18 0
BBX 30 37 -1 -8
BITMAP
00000000
00000000
00000000
00000000
00000000
00000000
00038000
00070000
00070000
00070000
000E0000
000E0000
000E0000
001C0000
001C0000
001C0000
00380000
00380000
00380000
00700000
00700000
00700000
00E00000
00E00000
00E00000
01C00000
01FFFC00
01FFFC00
03FFF800
00000000
00000000
00000000
00000000
00000000
00000000
00000000
00000000
ENDCHAR
STARTCHAR M
ENCODING 77
SWIDTH 702 0
DWIDTH 26 0
BBX 38 37 -1 -8
BITMAP
0000000000
0000000000
0000000000
0000000000
0000000000
0000000000
0003C001E0
0007C007C0
0007C007C0
0007C007C0
000FC01F80
000FC01F80
000FC01F80
001FC07F00
001DC07700
001DC07700
003BC1EE00
0039C1CE00
0039C1CE00
0073C79C00
0071C71C00
0071C71C00
00E3DE3800
00E1DC3800
00E1DC3800
01C3F87000
01C1F07000
01C1F07000
0383E0E000
0000000000
0000000000
0000000000
0000000000
0000000000
0000000000
0000000000
0000000000
ENDCHAR
STARTCHAR N
ENCODING 78
SWIDTH 648 0
DWIDTH 24 0
BBX 36 37 -1 -8
BITMAP
0000000000
0000000000
0000000000
0000000000
0000000000
0000000000
0003C00380
0007C00700
0007C00700
0007E00700
000FE00E00
000EE00E00
000EF00E00
001CF01C00
001C701C00
001C781C00
0038783800
0038383800
00383C3800
00703C7000
00701C7000
00701E7000
00E01EE000
00E00EE000
00E00FE000
01C00FC000
01C007C000
01C007C000
0380078000
0000000000
0000000000
0000000000
0000000000
0000000000
0000000000
0000000000
0000000000
ENDCHAR
STARTCHAR O
ENCODING 79
SWIDTH 675 0
DWIDTH 25 0
BBX 37 37 -1 -8
BITMAP
0000000000
0000000000
0000000000
0000000000
0000000000
0000000000
000007E000
00007FF800
0000FFFC00
0001F03E00
0007801E00
000F000F00
000E000700
001C000E00
0038000700
0038000700
0070000E00
0070000E00
0070000E00
00E0001C00
00E0001C00
0070003800
00E0007000
00F000F000
007801E000
007C0F8000
003FFF0000
001FFE0000
0007E00000
0000000000
0000000000
0000000000
0000000000
0000000000
0000000000
0000000000
0000000000
ENDCHAR
STARTCHAR P
ENCODING 80
SWIDTH 567 0
DWIDTH 21 0
BBX 33 37 -1 -8
BITMAP
0000000000
0000000000
0000000000
0000000000
0000000000
0000000000
0003FFE000
0007FFF000
0007FFF800
0007007800
000E007800
000E003800
000E003800
001C007000
001C007000
001C00F000
003803C000
003FFFC000
003FFF8000
007FFC0000
0070000000
0070000000
00E0000000
00E0000000
00E0000000
01C0000000
01C0000000
01C0000000
0380000000
0000000000
0000000000
0000000000
0000000000
0000000000
0000000000
0000000000
0000000000
ENDCHAR
STARTCHAR Q
ENCODING 81
SWIDTH 675 0
DWIDTH 25 0
BBX 37 37 -1 -8
BITMAP
0000000000
0000000000
0000000000
0000000000
0000000000
0000000000
000007E000
00007FF800
0000FFFC00
0001F03E00
0007801E00
000F000F00
000E000700
001C000E00
0038000700
0038000700
0070000E00
0070000E00
0070000E00
00E0001C00
00E0031C00
007007B800
00E007F000
00F003F000
007801E000
007C0FE000
003FFFF000
001FFE7000
0007E04000
0000000000
0000000000
0000000000
0000000000
0000000000
0000000000
0000000000
0000000000
ENDCHAR
STARTCHAR R
ENCODING 82
SWIDTH 594 0
DWIDTH 22 0
BBX 34 37 -1 -8
BITMAP
0000000000
0000000000
0000000000
0000000000
0000000000
0000000000
0003FFE000
0007FFF000
0007FFF800
0007003800
000E003800
000E003800
000E003800
001C007000
001C00F000
001C01E000
003FFFC000
003FFF8000
003FFFC000
0070078000
007003C000
007001C000
00E0038000
00E0038000
00E0038000
01C0070000
01C0070000
01C0078000
0380070000
0000000000
0000000000
0000000000
0000000000
0000000000
0000000000
0000000000
0000000000
ENDCHAR
STARTCHAR S
ENCODING 83
SWIDTH 567 0
DWIDTH 21 0
BBX 33 37 -1 -8
BITMAP
0000000000
0000000000
0000000000
0000000000
0000000000
0000000000
00007FC000
0003FFE000
0007FFF000
000780F000
001E00F000
001C007000
001C000000
003C000000
001E000000
001FE00000
001FFE0000
0007FF8000
00007FC000
0000078000
000003C000
000001C000
0380038000
03C0038000
01C0078000
03E01E0000
01FFFE0000
00FFFC0000
007FE00000
0000000000
0000000000
0000000000
0000000000
0000000000
0000000000
0000000000
0000000000
ENDCHAR
STARTCHAR T
ENCODING 84
SWIDTH 540 0
DWIDTH 20 0
BBX 32 37 -1 -8
BITMAP
00000000
00000000
00000000
00000000
00000000
00000000
000FFFFE
001FFFFC
001FFFFC
00001C00
00003800
00003800
00003800
00007000
00007000
00007000
0000E000
0000E000
0000E000
0001C000
0001C000
0001C000
00038000
00038000
00038000
00070000
00070000
00070000
000E0000
00000000
00000000
00000000
00000000
00000000
00000000
00000000
00000000
ENDCHAR
STARTCHAR U
ENCODING 85
SWIDTH 621 0
DWIDTH 23 0
BBX 35 37 -1 -8
BITMAP
0000000000
0000000000
0000000000
0000000000
0000000000
0000000000
0003800700
0007000E00
0007000E00
0007000E00
000E001C00
000E001C00
000E001C00
001C003800
001C003800
001C003800
0038007000
0038007000
0038007000
007000E000
007000E000
007000E000
00E001C000
00F003C000
0070038000
00F81F0000
007FFE0000
003FFC0000
001FE00000
0000000000
0000000000
0000000000
0000000000
0000000000
0000000000
0000000000
0000000000
ENDCHAR
STARTCHAR V
ENCODING 86
SWIDTH 594 0
DWIDTH 22 0
BBX 34 37 -1 -8
BITMAP
0000000000
0000000000
0000000000
0000000000
0000000000
0000000000
000E000380
001E000F00
000E000E00
000E000E00
001E003C00
000E003800
000F007800
000E00E000
000E00E000
000F01E000
000E038000
000E038000
000F078000
000E0E0000
000F1E0000
00071C0000
000E380000
000F780000
0007700000
000FE00000
000FE00000
0007C00000
000F800000
0000000000
0000000000
0000000000
0000000000
0000000000
0000000000
0000000000
0000000000
ENDCHAR
STARTCHAR W
ENCODING 87
SWIDTH 837 0
DWIDTH 31 0
BBX 43 37 -1 -8
BITMAP
000000000000
000000000000
000000000000
000000000000
000000000000
000000000000
000E007801C0
001C00F00380
001C00F00380
001E01F80780
001C03F00E00
001C03F00E00
001E07F81E00
001C0E703800
001C0E703800
001E1E787800
001C3870E000
001C3870E000
001E7879E000
001CE0738000
001CE0738000
001FE07F8000
001F807E0000
001F807E0000
001F807E0000
001E00780000
001E00780000
001E00780000
003C00F00000
000000000000
000000000000
000000000000
000000000000
000000000000
000000000000
000000000000
000000000000
ENDCHAR
STARTCHAR X
ENCODING 88
SWIDTH 567 0
DWIDTH 21 0
BBX 33 37 -1 -8
BITMAP
0000000000
0000000000
0000000000
0000000000
0000000000
0000000000
0007000E00
000F003C00
0007003800
0007807800
000781E000
0003C3C000
0001C38000
0003CF0000
0001FE0000
0000FC0000
0000F00000
0000F00000
0001F80000
0007F80000
0007380000
000F3C0000
003C3C0000
00781E0000
00700E0000
01E01E0000
03C00F0000
0780078000
0E00070000
0000000000
0000000000
0000000000
0000000000
0000000000
0000000000
0000000000
0000000000
ENDCHAR
STARTCHAR Y
ENCODING 89
SWIDTH 594 0
DWIDTH 22 0
BBX 34 37 -1 -8
BITMAP
0000000000
0000000000
0000000000
0000000000
0000000000
0000000000
000E000380
001E000F00
000F001E00
0007803C00
0007007000
000780F000
0003C1E000
0003C78000
0001C70000
0001EF0000
0001FC0000
0000F80000
0000700000
0000E00000
0000E00000
0000E00000
0001C00000
0001C00000
0001C00000
0003800000
0003800000
0003800000
0007000000
0000000000
0000000000
0000000000
0000000000
0000000000
0000000000
0000000000
0000000000
ENDCHAR
STARTCHAR Z
ENCODING 90
SWIDTH 540 0
DWIDTH 20 0
BBX 32 37 -1 -8
BITMAP
00000000
00000000
00000000
00000000
00000000
00000000
0007FFFC
000FFFF8
000FFFF8
00000078
000001E0
000003C0
00000780
00001E00
00003C00
00003800
0000F000
0001E000
0003C000
000F0000
000E0000
001E0000
00780000
00F00000
01E00000
07800000
07FFFF00
07FFFF00
0FFFFE00
00000000
00000000
00000000
00000000
00000000
00000000
00000000
00000000
ENDCHAR
STARTCHAR bracketleft
ENCODING 91
SWIDTH 243 0
DWIDTH 9 0
BBX 21 37 -1 -8
BITMAP
000000
000000
000000
000000
000000
000000
0007E0
000FC0
000FC0
000E00
001C00
001C00
001C00
003800
003800
003800
007000
007000
007000
00E000
00E000
00E000
01C000
01C000
01C000
038000
038000
038000
070000
070000
070000
0E0000
0E0000
0FC000
1F8000
1F8000
000000
ENDCHAR
STARTCHAR backslash
ENCODING 92
SWIDTH 243 0
DWIDTH 9 0
BBX 21 37 -1 -8
BITMAP
000000
000000
000000
000000
000000
000000
001C00
003800
003800
001C00
003800
003800
003800
003800
003800
003800
003800
003800
003800
007000
003800
003800
007000
003800
003800
007000
003800
003800
007000
000000
000000
000000
000000
000000
000000
000000
000000
ENDCHAR
STARTCHAR bracketright
ENCODING 93
SWIDTH 243 0
DWIDTH 9 0
BBX 21 37 -1 -8
BITMAP
000000
000000
000000
000000
000000
000000
000FC0
001F80
001F80
000380
000700
000700
000700
000E00
000E00
000E00
001C00
001C00
001C00
003800
003800
003800
007000
007000
007000
00E000
00E000
00E000
01C000
01C000
01C000
038000
038000
1F8000
3F0000
3F0000
000000
ENDCHAR
STARTCHAR asciicircum
ENCODING 94
SWIDTH 405 0
DWIDTH 15 0
BBX 27 37 -1 -8
BITMAP
00000000
00000000
00000000
00000000
00000000
00000000
0000F800
0003F800
0007BC00
000E0E00
00300600
00000000
00000000
00000000
00000000
00000000
00000000
00000000
00000000
00000000
00000000
00000000
00000000
00000000
00000000
00000000
00000000
00000000
00000000
00000000
00000000
00000000
00000000
00000000
00000000
00000000
00000000
ENDCHAR
STARTCHAR underscore
ENCODING 95
SWIDTH 486 0
DWIDTH 18 0
BBX 30 37 -1 -8
BITMAP
00000000
00000000
00000000
00000000
00000000
00000000
00000000
00000000
00000000
00000000
00000000
00000000
00000000
00000000
00000000
00000000
00000000
00000000
00000000
00000000
00000000
00000000
00000000
00000000
00000000
00000000
00000000
00000000
00000000
00000000
1FFFF800
3FFFF000
00000000
00000000
00000000
00000000
00000000
ENDCHAR
STARTCHAR quoteleft
ENCODING 96
SWIDTH 297 0
DWIDTH 11 0
BBX 23 37 -1 -8
BITMAP
000000
000000
000000
000000
000000
000000
0007C0
0003C0
0000E0
000020
000000
000000
000000
000000
000000
000000
000000
000000
000000
000000
000000
000000
000000
000000
000000
000000
000000
000000
000000
000000
000000
000000
000000
000000
000000
000000
000000
ENDCHAR
STARTCHAR a
ENCODING 97
SWIDTH 486 0
DWIDTH 18 0
BBX 30 37 -1 -8
BITMAP
00000000
00000000
00000000
00000000
00000000
00000000
00000000
00000000
00000000
00000000
00000000
00000000
00000000
0007F800
001FFE00
001C0E00
00700E00
00000E00
00001E00
001FFC00
007FDC00
00F01C00
01C03800
03803800
03803800
0700F000
0381F800
03FFBC00
01FC3800
00000000
00000000
00000000
00000000
00000000
00000000
00000000
00000000
ENDCHAR
STARTCHAR b
ENCODING 98
SWIDTH 486 0
DWIDTH 18 0
BBX 30 37 -1 -8
BITMAP
00000000
00000000
00000000
00000000
00000000
00000000
00070000
000E0000
000E0000
000E0000
001C0000
001C0000
001C0000
0039F800
003FFE00
003F1F00
00780E00
00780F00
00700700
00E00E00
00E00E00
00E00E00
01C01C00
01C01C00
01E03C00
03C07000
03F1F000
03FFE000
073F0000
00000000
00000000
00000000
00000000
00000000
00000000
00000000
00000000
ENDCHAR
STARTCHAR c
ENCODING 99
SWIDTH 432 0
DWIDTH 16 0
BBX 28 37 -1 -8
BITMAP
00000000
00000000
00000000
00000000
00000000
00000000
00000000
00000000
00000000
00000000
00000000
00000000
00000000
0007F800
001FFE00
003E1F00
00700E00
00F00E00
00E00000
01C00000
01C00000
01C00000
03800000
03800000
03C03800
03807000
03E1F000
01FFE000
00FF0000
00000000
00000000
00000000
00000000
00000000
00000000
00000000
00000000
ENDCHAR
STARTCHAR d
ENCODING 100
SWIDTH 486 0
DWIDTH 18 0
BBX 30 37 -1 -8
BITMAP
00000000
00000000
00000000
00000000
00000000
00000000
000000E0
000001C0
000001C0
000001C0
00000380
00000380
00000380
0007E700
001FFF00
003E3F00
00701E00
00F01E00
00E00E00
01C01C00
01C01C00
01C01C00
03803800
03803800
03C07800
0380F000
03E3F000
01FFF000
00FCE000
00000000
00000000
00000000
00000000
00000000
00000000
00000000
00000000
ENDCHAR
STARTCHAR e
ENCODING 101
SWIDTH 459 0
DWIDTH 17 0
BBX 29 37 -1 -8
BITMAP
00000000
00000000
00000000
00000000
00000000
00000000
00000000
00000000
00000000
00000000
00000000
00000000
00000000
0007F000
001FFC00
003E3E00
00701C00
00F01E00
00E00E00
01FFFC00
01FFFC00
01C00000
03800000
03800000
03C07800
0380E000
03E3E000
01FFC000
00FE0000
00000000
00000000
00000000
00000000
00000000
00000000
00000000
00000000
ENDCHAR
STARTCHAR f
ENCODING 102
SWIDTH 243 0
DWIDTH 9 0
BBX 21 37 -1 -8
BITMAP
000000
000000
000000
000000
000000
000000
000070
0003E0
000380
000700
000E00
000E00
000E00
00FF80
00FF80
001C00
003800
003800
003800
007000
007000
007000
00E000
00E000
00E000
01C000
01C000
01C000
038000
000000
000000
000000
000000
000000
000000
000000
000000
ENDCHAR
STARTCHAR g
ENCODING 103
SWIDTH 486 0
DWIDTH 18 0
BBX 30 37 -1 -8
BITMAP
00000000
00000000
00000000
00000000
00000000
00000000
00000000
00000000
00000000
00000000
00000000
00000000
00000000
0007E700
001FFF00
003E3F00
00701E00
00F01E00
00E00E00
01C01C00
01C01C00
01C01C00
03803800
03803800
03C07800
0380F000
03E3F000
01FFF000
00FCE000
0000E000
0000E000
0E038000
0E038000
078F0000
07FC0000
01F00000
00000000
ENDCHAR
STARTCHAR h
ENCODING 104
SWIDTH 486 0
DWIDTH 18 0
BBX 30 37 -1 -8
BITMAP
00000000
00000000
00000000
00000000
00000000
00000000
00070000
000E0000
000E0000
000E0000
001C0000
001C0000
001C0000
0039F800
003BFE00
003E1E00
00781E00
00700E00
00700E00
00E01C00
00E01C00
00E01C00
01C03800
01C03800
01C03800
03807000
03807000
03807000
0700E000
00000000
00000000
00000000
00000000
00000000
00000000
00000000
00000000
ENDCHAR
STARTCHAR i
ENCODING 105
SWIDTH 189 0
DWIDTH 7 0
BBX 19 37 -1 -8
BITMAP
000000
000000
000000
000000
000000
000000
000700
000E00
000E00
000000
000000
000000
000000
003800
003800
003800
007000
007000
007000
00E000
00E000
00E000
01C000
01C000
01C000
038000
038000
038000
070000
000000
000000
000000
000000
000000
000000
000000
000000
ENDCHAR
STARTCHAR j
ENCODING 106
SWIDTH 189 0
DWIDTH 7 0
BBX 19 37 -1 -8
BITMAP
000000
000000
000000
000000
000000
000000
000700
000E00
000E00
000000
000000
000000
000000
003800
003800
003800
007000
007000
007000
00E000
00E000
00E000
01C000
01C000
01C000
038000
038000
038000
070000
070000
070000
0E0000
0E0000
1E0000
780000
700000
000000
ENDCHAR
STARTCHAR k
ENCODING 107
SWIDTH 432 0
DWIDTH 16 0
BBX 28 37 -1 -8
BITMAP
00000000
00000000
00000000
00000000
00000000
00000000
00070000
000E0000
000E0000
000E0000
001C0000
001C0000
001C0000
00381C00
00383800
00387000
0071C000
00738000
00770000
00FE0000
00FF0000
00F78000
01C78000
01C38000
01C3C000
0383C000
0381E000
0380E000
0701E000
00000000
00000000
00000000
00000000
00000000
00000000
00000000
00000000
ENDCHAR
STARTCHAR l
ENCODING 108
SWIDTH 189 0
DWIDTH 7 0
BBX 19 37 -1 -8
BITMAP
000000
000000
000000
000000
000000
000000
000700
000E00
000E00
000E00
001C00
001C00
001C00
003800
003800
003800
007000
007000
007000
00E000
00E000
00E000
01C000
01C000
01C000
038000
038000
038000
070000
000000
000000
000000
000000
000000
000000
000000
000000
ENDCHAR
STARTCHAR m
ENCODING 109
SWIDTH 729 0
DWIDTH 27 0
BBX 39 37 -1 -8
BITMAP
0000000000
0000000000
0000000000
0000000000
0000000000
0000000000
0000000000
0000000000
0000000000
0000000000
0000000000
0000000000
0000000000
0039F07C00
003BFCFF00
003E3D8F00
00783E0F00
00701C0700
00701C0700
00E0380E00
00E0380E00
00E0380E00
01C0701C00
01C0701C00
01C0701C00
0380E03800
0380E03800
0380E03800
0701C07000
0000000000
0000000000
0000000000
0000000000
0000000000
0000000000
0000000000
0000000000
ENDCHAR
STARTCHAR n
ENCODING 110
SWIDTH 486 0
DWIDTH 18 0
BBX 30 37 -1 -8
BITMAP
00000000
00000000
00000000
00000000
00000000
00000000
00000000
00000000
00000000
00000000
00000000
00000000
00000000
0039F800
003BFE00
003E1E00
00781E00
00700E00
00700E00
00E01C00
00E01C00
00E01C00
01C03800
01C03800
01C03800
03807000
03807000
03807000
0700E000
00000000
00000000
00000000
00000000
00000000
00000000
00000000
00000000
ENDCHAR
STARTCHAR o
ENCODING 111
SWIDTH 486 0
DWIDTH 18 0
BBX 30 37 -1 -8
BITMAP
00000000
00000000
00000000
00000000
00000000
00000000
00000000
00000000
00000000
00000000
00000000
00000000
00000000
0007F800
001FFE00
003E1F00
00700E00
00F00F00
00E00700
01C00E00
01C00E00
01C00E00
03801C00
03801C00
03C03C00
03807000
03E1F000
01FFE000
00FF0000
00000000
00000000
00000000
00000000
00000000
00000000
00000000
00000000
ENDCHAR
STARTCHAR p
ENCODING 112
SWIDTH 486 0
DWIDTH 18 0
BBX 30 37 -1 -8
BITMAP
00000000
00000000
00000000
00000000
00000000
00000000
00000000
00000000
00000000
00000000
00000000
00000000
00000000
0039F800
003FFE00
003F1F00
00780E00
00780F00
00700700
00E00E00
00E00E00
00E00E00
01C01C00
01C01C00
01E03C00
03C07000
03F1F000
03FFE000
073F0000
07000000
07000000
0E000000
0E000000
0E000000
1C000000
00000000
00000000
ENDCHAR
STARTCHAR q
ENCODING 113
SWIDTH 486 0
DWIDTH 18 0
BBX 30 37 -1 -8
BITMAP
00000000
00000000
00000000
00000000
00000000
00000000
00000000
00000000
00000000
00000000
00000000
00000000
00000000
0007E700
001FFF00
003E3F00
00701E00
00F01E00
00E00E00
01C01C00
01C01C00
01C01C00
03803800
03803800
03C07800
0380F000
03E3F000
01FFF000
00FCE000
0000E000
0000E000
0001C000
0001C000
0001C000
00038000
00000000
00000000
ENDCHAR
STARTCHAR r
ENCODING 114
SWIDTH 297 0
DWIDTH 11 0
BBX 23 37 -1 -8
BITMAP
000000
000000
000000
000000
000000
000000
000000
000000
000000
000000
000000
000000
000000
0039E0
003BE0
003E00
007800
007000
007000
00E000
00E000
00E000
01C000
01C000
01C000
038000
038000
038000
070000
000000
000000
000000
000000
000000
000000
000000
000000
ENDCHAR
STARTCHAR s
ENCODING 115
SWIDTH 432 0
DWIDTH 16 0
BBX 28 37 -1 -8
BITMAP
00000000
00000000
00000000
00000000
00000000
00000000
00000000
00000000
00000000
00000000
00000000
00000000
00000000
000FE000
003FF800
00383800
00E03800
00E00000
00E00000
00E00000
00FFC000
003FF000
0000E000
00007000
03807000
0700E000
0381C000
03FFC000
01FE0000
00000000
00000000
00000000
00000000
00000000
00000000
00000000
00000000
ENDCHAR
STARTCHAR t
ENCODING 116
SWIDTH 243 0
DWIDTH 9 0
BBX 21 37 -1 -8
BITMAP
000000
000000
000000
000000
000000
000000
000000
000700
000700
000700
000E00
000E00
000E00
00FF80
00FF80
001C00
003800
003800
003800
007000
007000
007000
00E000
00E000
00E000
01C000
00E000
00F800
007000
000000
000000
000000
000000
000000
000000
000000
000000
ENDCHAR
STARTCHAR u
ENCODING 117
SWIDTH 486 0
DWIDTH 18 0
BBX 30 37 -1 -8
BITMAP
00000000
00000000
00000000
00000000
00000000
00000000
00000000
00000000
00000000
00000000
00000000
00000000
00000000
00380700
00380700
00380700
00700E00
00700E00
00700E00
00E01C00
00E01C00
00E01C00
01C03800
01C03800
01C03800
03C0F000
01E1F000
01FF7000
00FCE000
00000000
00000000
00000000
00000000
00000000
00000000
00000000
00000000
ENDCHAR
STARTCHAR v
ENCODING 118
SWIDTH 405 0
DWIDTH 15 0
BBX 27 37 -1 -8
BITMAP
00000000
00000000
00000000
00000000
00000000
00000000
00000000
00000000
00000000
00000000
00000000
00000000
00000000
00E00E00
00E00E00
00E00E00
00E03800
00E03800
00707000
00E0E000
0071C000
0071C000
00770000
00770000
007F0000
007C0000
007C0000
00380000
00700000
00000000
00000000
00000000
00000000
00000000
00000000
00000000
00000000
ENDCHAR
STARTCHAR w
ENCODING 119
SWIDTH 621 0
DWIDTH 23 0
BBX 35 37 -1 -8
BITMAP
0000000000
0000000000
0000000000
0000000000
0000000000
0000000000
0000000000
0000000000
0000000000
0000000000
0000000000
0000000000
0000000000
00E0380E00
00E0380E00
00E0380E00
00E0F83800
00E0F83800
0071DC7000
00E3B8E000
00E3B8E000
00771DC000
00EE3B8000
00EE3B8000
007C1F0000
00F83E0000
00701C0000
00701C0000
00E0380000
0000000000
0000000000
0000000000
0000000000
0000000000
0000000000
0000000000
0000000000
ENDCHAR
STARTCHAR x
ENCODING 120
SWIDTH 405 0
DWIDTH 15 0
BBX 27 37 -1 -8
BITMAP
00000000
00000000
00000000
00000000
00000000
00000000
00000000
00000000
00000000
00000000
00000000
00000000
00000000
00E00E00
00F01E00
00783C00
0078F000
0038E000
003DE000
003F8000
001F0000
001F0000
007F0000
00F78000
00E38000
03C78000
0783C000
0F01E000
1C01C000
00000000
00000000
00000000
00000000
00000000
00000000
00000000
00000000
ENDCHAR
STARTCHAR y
ENCODING 121
SWIDTH 405 0
DWIDTH 15 0
BBX 27 37 -1 -8
BITMAP
00000000
00000000
00000000
00000000
00000000
00000000
00000000
00000000
00000000
00000000
00000000
00000000
00000000
00E00E00
00E00E00
00E00E00
00E03800
00E03800
00707000
00E0E000
0071C000
0071C000
00770000
00770000
003E0000
007C0000
00380000
00380000
00E00000
00E00000
01C00000
03800000
07000000
0F000000
7C000000
70000000
00000000
ENDCHAR
STARTCHAR z
ENCODING 122
SWIDTH 432 0
DWIDTH 16 0
BBX 28 37 -1 -8
BITMAP
00000000
00000000
00000000
00000000
00000000
00000000
00000000
00000000
00000000
00000000
00000000
00000000
00000000
007FFC00
007FFC00
007FFC00
00007800
0000F000
0001E000
00078000
000F0000
000E0000
003C0000
00780000
00F00000
03C00000
07FFE000
07FFE000
0FFFC000
00000000
00000000
00000000
00000000
00000000
00000000
00000000
00000000
ENDCHAR
STARTCHAR braceleft
ENCODING 123
SWIDTH 297 0
DWIDTH 11 0
BBX 23 37 -1 -8
BITMAP
000000
000000
000000
000000
000000
00003C
0000FC
0001E0
0003C0
000380
000700
000700
000700
000E00
000C00
001C00
007000
00E000
007000
007000
003000
003800
007000
007000
007000
00E000
00F000
007800
00FC00
003C00
000000
000000
000000
000000
000000
000000
000000
ENDCHAR
STARTCHAR bar
ENCODING 124
SWIDTH 189 0
DWIDTH 7 0
BBX 19 37 -1 -8
BITMAP
000000
000000
000000
000000
000000
000000
000700
000E00
000E00
000E00
001C00
001C00
001C00
003800
003800
003800
007000
007000
007000
00E000
00E000
00E000
01C000
01C000
01C000
038000
038000
038000
070000
000000
000000
000000
000000
000000
000000
000000
000000
ENDCHAR
STARTCHAR braceright
ENCODING 125
SWIDTH 297 0
DWIDTH 11 0
BBX 23 37 -1 -8
BITMAP
000000
000000
000000
000000
000000
000F00
000FC0
000780
0003C0
0001C0
000380
000380
000380
000700
000700
000380
000780
0003C0
000380
000E00
000C00
001C00
003800
003800
003800
007000
00F000
01E000
0FC000
0F0000
000000
000000
000000
000000
000000
000000
000000
ENDCHAR
STARTCHAR asciitilde
ENCODING 126
SWIDTH 513 0
DWIDTH 19 0
BBX 31 37 -1 -8
BITMAP
00000000
00000000
00000000
00000000
00000000
00000000
0001F038
0007F070
000F3CF0
000E0FE0
001C0F80
00000000
00000000
00000000
00000000
00000000
00000000
00000000
00000000
00000000
00000000
00000000
00000000
00000000
00000000
00000000
00000000
00000000
00000000
00000000
00000000
00000000
00000000
00000000
00000000
00000000
00000000
ENDCHAR
STARTCHAR C177
ENCODING -1
SWIDTH 297 0
DWIDTH 11 0
BBX 23 37 -1 -8
BITMAP
000000
000000
000000
000000
000000
000000
0003E0
0007C0
0007C0
0007C0
000F80
000F80
000F80
001F00
001F00
001F00
003E00
003E00
003E00
007C00
007C00
007C00
00F800
00F800
00F800
01F000
01F000
01F000
03E000
000000
000000
000000
000000
000000
000000
000000
000000
ENDCHAR
STARTCHAR C200
ENCODING -1
SWIDTH 297 0
DWIDTH 11 0
BBX 23 37 -1 -8
BITMAP
000000
000000
000000
000000
000000
000000
0003E0
0007C0
0007C0
0007C0
000F80
000F80
000F80
001F00
001F00
001F00
003E00
003E00
003E00
007C00
007C00
007C00
00F800
00F800
00F800
01F000
01F000
01F000
03E000
000000
000000
000000
000000
000000
000000
000000
000000
ENDCHAR
STARTCHAR C201
ENCODING -1
SWIDTH 297 0
DWIDTH 11 0
BBX 23 37 -1 -8
BITMAP
000000
000000
000000
000000
000000
000000
0003E0
0007C0
0007C0
0007C0
000F80
000F80
000F80
001F00
001F00
001F00
003E00
003E00
003E00
007C00
007C00
007C00
00F800
00F800
00F800
01F000
01F000
01F000
03E000
000000
000000
000000
000000
000000
000000
000000
000000
ENDCHAR
STARTCHAR C202
ENCODING -1
SWIDTH 297 0
DWIDTH 11 0
BBX 23 37 -1 -8
BITMAP
000000
000000
000000
000000
000000
000000
0003E0
0007C0
0007C0
0007C0
000F80
000F80
000F80
001F00
001F00
001F00
003E00
003E00
003E00
007C00
007C00
007C00
00F800
00F800
00F800
01F000
01F000
01F000
03E000
000000
000000
000000
000000
000000
000000
000000
000000
ENDCHAR
STARTCHAR C203
ENCODING -1
SWIDTH 297 0
DWIDTH 11 0
BBX 23 37 -1 -8
BITMAP
000000
000000
000000
000000
000000
000000
0003E0
0007C0
0007C0
0007C0
000F80
000F80
000F80
001F00
001F00
001F00
003E00
003E00
003E00
007C00
007C00
007C00
00F800
00F800
00F800
01F000
01F000
01F000
03E000
000000
000000
000000
000000
000000
000000
000000
000000
ENDCHAR
STARTCHAR C204
ENCODING -1
SWIDTH 297 0
DWIDTH 11 0
BBX 23 37 -1 -8
BITMAP
000000
000000
000000
000000
000000
000000
0003E0
0007C0
0007C0
0007C0
000F80
000F80
000F80
001F00
001F00
001F00
003E00
003E00
003E00
007C00
007C00
007C00
00F800
00F800
00F800
01F000
01F000
01F000
03E000
000000
000000
000000
000000
000000
000000
000000
000000
ENDCHAR
STARTCHAR C205
ENCODING -1
SWIDTH 297 0
DWIDTH 11 0
BBX 23 37 -1 -8
BITMAP
000000
000000
000000
000000
000000
000000
0003E0
0007C0
0007C0
0007C0
000F80
000F80
000F80
001F00
001F00
001F00
003E00
003E00
003E00
007C00
007C00
007C00
00F800
00F800
00F800
01F000
01F000
01F000
03E000
000000
000000
000000
000000
000000
000000
000000
000000
ENDCHAR
STARTCHAR C206
ENCODING -1
SWIDTH 297 0
DWIDTH 11 0
BBX 23 37 -1 -8
BITMAP
000000
000000
000000
000000
000000
000000
0003E0
0007C0
0007C0
0007C0
000F80
000F80
000F80
001F00
001F00
001F00
003E00
003E00
003E00
007C00
007C00
007C00
00F800
00F800
00F800
01F000
01F000
01F000
03E000
000000
000000
000000
000000
000000
000000
000000
000000
ENDCHAR
STARTCHAR C207
ENCODING -1
SWIDTH 297 0
DWIDTH 11 0
BBX 23 37 -1 -8
BITMAP
000000
000000
000000
000000
000000
000000
0003E0
0007C0
0007C0
0007C0
000F80
000F80
000F80
001F00
001F00
001F00
003E00
003E00
003E00
007C00
007C00
007C00
00F800
00F800
00F800
01F000
01F000
01F000
03E000
000000
000000
000000
000000
000000
000000
000000
000000
ENDCHAR
STARTCHAR C210
ENCODING -1
SWIDTH 297 0
DWIDTH 11 0
BBX 23 37 -1 -8
BITMAP
000000
000000
000000
000000
000000
000000
0003E0
0007C0
0007C0
0007C0
000F80
000F80
000F80
001F00
001F00
001F00
003E00
003E00
003E00
007C00
007C00
007C00
00F800
00F800
00F800
01F000
01F000
01F000
03E000
000000
000000
000000
000000
000000
000000
000000
000000
ENDCHAR
STARTCHAR C211
ENCODING -1
SWIDTH 297 0
DWIDTH 11 0
BBX 23 37 -1 -8
BITMAP
000000
000000
000000
000000
000000
000000
0003E0
0007C0
0007C0
0007C0
000F80
000F80
000F80
001F00
001F00
001F00
003E00
003E00
003E00
007C00
007C00
007C00
00F800
00F800
00F800
01F000
01F000
01F000
03E000
000000
000000
000000
000000
000000
000000
000000
000000
ENDCHAR
STARTCHAR C212
ENCODING -1
SWIDTH 297 0
DWIDTH 11 0
BBX 23 37 -1 -8
BITMAP
000000
000000
000000
000000
000000
000000
0003E0
0007C0
0007C0
0007C0
000F80
000F80
000F80
001F00
001F00
001F00
003E00
003E00
003E00
007C00
007C00
007C00
00F800
00F800
00F800
01F000
01F000
01F000
03E000
000000
000000
000000
000000
000000
000000
000000
000000
ENDCHAR
STARTCHAR C213
ENCODING -1
SWIDTH 297 0
DWIDTH 11 0
BBX 23 37 -1 -8
BITMAP
000000
000000
000000
000000
000000
000000
0003E0
0007C0
0007C0
0007C0
000F80
000F80
000F80
001F00
001F00
001F00
003E00
003E00
003E00
007C00
007C00
007C00
00F800
00F800
00F800
01F000
01F000
01F000
03E000
000000
000000
000000
000000
000000
000000
000000
000000
ENDCHAR
STARTCHAR C214
ENCODING -1
SWIDTH 297 0
DWIDTH 11 0
BBX 23 37 -1 -8
BITMAP
000000
000000
000000
000000
000000
000000
0003E0
0007C0
0007C0
0007C0
000F80
000F80
000F80
001F00
001F00
001F00
003E00
003E00
003E00
007C00
007C00
007C00
00F800
00F800
00F800
01F000
01F000
01F000
03E000
000000
000000
000000
000000
000000
000000
000000
000000
ENDCHAR
STARTCHAR C215
ENCODING -1
SWIDTH 297 0
DWIDTH 11 0
BBX 23 37 -1 -8
BITMAP
000000
000000
000000
000000
000000
000000
0003E0
0007C0
0007C0
0007C0
000F80
000F80
000F80
001F00
001F00
001F00
003E00
003E00
003E00
007C00
007C00
007C00
00F800
00F800
00F800
01F000
01F000
01F000
03E000
000000
000000
000000
000000
000000
000000
000000
000000
ENDCHAR
STARTCHAR C216
ENCODING -1
SWIDTH 297 0
DWIDTH 11 0
BBX 23 37 -1 -8
BITMAP
000000
000000
000000
000000
000000
000000
0003E0
0007C0
0007C0
0007C0
000F80
000F80
000F80
001F00
001F00
001F00
003E00
003E00
003E00
007C00
007C00
007C00
00F800
00F800
00F800
01F000
01F000
01F000
03E000
000000
000000
000000
000000
000000
000000
000000
000000
ENDCHAR
STARTCHAR C217
ENCODING -1
SWIDTH 297 0
DWIDTH 11 0
BBX 23 37 -1 -8
BITMAP
000000
000000
000000
000000
000000
000000
0003E0
0007C0
0007C0
0007C0
000F80
000F80
000F80
001F00
001F00
001F00
003E00
003E00
003E00
007C00
007C00
007C00
00F800
00F800
00F800
01F000
01F000
01F000
03E000
000000
000000
000000
000000
000000
000000
000000
000000
ENDCHAR
STARTCHAR C220
ENCODING -1
SWIDTH 297 0
DWIDTH 11 0
BBX 23 37 -1 -8
BITMAP
000000
000000
000000
000000
000000
000000
0003E0
0007C0
0007C0
0007C0
000F80
000F80
000F80
001F00
001F00
001F00
003E00
003E00
003E00
007C00
007C00
007C00
00F800
00F800
00F800
01F000
01F000
01F000
03E000
000000
000000
000000
000000
000000
000000
000000
000000
ENDCHAR
STARTCHAR C221
ENCODING -1
SWIDTH 243 0
DWIDTH 9 0
BBX 21 37 -1 -8
BITMAP
000000
000000
000000
000000
000000
000000
000080
000200
000400
000700
000E00
000E00
000000
000000
000000
000000
000000
000000
000000
000000
000000
000000
000000
000000
000000
000000
000000
000000
000000
000000
000000
000000
000000
000000
000000
000000
000000
ENDCHAR
STARTCHAR C222
ENCODING -1
SWIDTH 243 0
DWIDTH 9 0
BBX 21 37 -1 -8
BITMAP
000000
000000
000000
000000
000000
000000
000380
000700
000700
000100
000400
000800
000000
000000
000000
000000
000000
000000
000000
000000
000000
000000
000000
000000
000000
000000
000000
000000
000000
000000
000000
000000
000000
000000
000000
000000
000000
ENDCHAR
STARTCHAR C223
ENCODING -1
SWIDTH 297 0
DWIDTH 11 0
BBX 23 37 -1 -8
BITMAP
000000
000000
000000
000000
000000
000000
0003E0
0007C0
0007C0
0007C0
000F80
000F80
000F80
001F00
001F00
001F00
003E00
003E00
003E00
007C00
007C00
007C00
00F800
00F800
00F800
01F000
01F000
01F000
03E000
000000
000000
000000
000000
000000
000000
000000
000000
ENDCHAR
STARTCHAR C224
ENCODING -1
SWIDTH 297 0
DWIDTH 11 0
BBX 23 37 -1 -8
BITMAP
000000
000000
000000
000000
000000
000000
0003E0
0007C0
0007C0
0007C0
000F80
000F80
000F80
001F00
001F00
001F00
003E00
003E00
003E00
007C00
007C00
007C00
00F800
00F800
00F800
01F000
01F000
01F000
03E000
000000
000000
000000
000000
000000
000000
000000
000000
ENDCHAR
STARTCHAR C225
ENCODING -1
SWIDTH 297 0
DWIDTH 11 0
BBX 23 37 -1 -8
BITMAP
000000
000000
000000
000000
000000
000000
0003E0
0007C0
0007C0
0007C0
000F80
000F80
000F80
001F00
001F00
001F00
003E00
003E00
003E00
007C00
007C00
007C00
00F800
00F800
00F800
01F000
01F000
01F000
03E000
000000
000000
000000
000000
000000
000000
000000
000000
ENDCHAR
STARTCHAR C226
ENCODING -1
SWIDTH 297 0
DWIDTH 11 0
BBX 23 37 -1 -8
BITMAP
000000
000000
000000
000000
000000
000000
0003E0
0007C0
0007C0
0007C0
000F80
000F80
000F80
001F00
001F00
001F00
003E00
003E00
003E00
007C00
007C00
007C00
00F800
00F800
00F800
01F000
01F000
01F000
03E000
000000
000000
000000
000000
000000
000000
000000
000000
ENDCHAR
STARTCHAR C227
ENCODING -1
SWIDTH 297 0
DWIDTH 11 0
BBX 23 37 -1 -8
BITMAP
000000
000000
000000
000000
000000
000000
0003E0
0007C0
0007C0
0007C0
000F80
000F80
000F80
001F00
001F00
001F00
003E00
003E00
003E00
007C00
007C00
007C00
00F800
00F800
00F800
01F000
01F000
01F000
03E000
000000
000000
000000
000000
000000
000000
000000
000000
ENDCHAR
STARTCHAR C230
ENCODING -1
SWIDTH 297 0
DWIDTH 11 0
BBX 23 37 -1 -8
BITMAP
000000
000000
000000
000000
000000
000000
0003E0
0007C0
0007C0
0007C0
000F80
000F80
000F80
001F00
001F00
001F00
003E00
003E00
003E00
007C00
007C00
007C00
00F800
00F800
00F800
01F000
01F000
01F000
03E000
000000
000000
000000
000000
000000
000000
000000
000000
ENDCHAR
STARTCHAR C231
ENCODING -1
SWIDTH 297 0
DWIDTH 11 0
BBX 23 37 -1 -8
BITMAP
000000
000000
000000
000000
000000
000000
0003E0
0007C0
0007C0
0007C0
000F80
000F80
000F80
001F00
001F00
001F00
003E00
003E00
003E00
007C00
007C00
007C00
00F800
00F800
00F800
01F000
01F000
01F000
03E000
000000
000000
000000
000000
000000
000000
000000
000000
ENDCHAR
STARTCHAR C232
ENCODING -1
SWIDTH 297 0
DWIDTH 11 0
BBX 23 37 -1 -8
BITMAP
000000
000000
000000
000000
000000
000000
0003E0
0007C0
0007C0
0007C0
000F80
000F80
000F80
001F00
001F00
001F00
003E00
003E00
003E00
007C00
007C00
007C00
00F800
00F800
00F800
01F000
01F000
01F000
03E000
000000
000000
000000
000000
000000
000000
000000
000000
ENDCHAR
STARTCHAR C233
ENCODING -1
SWIDTH 297 0
DWIDTH 11 0
BBX 23 37 -1 -8
BITMAP
000000
000000
000000
000000
000000
000000
0003E0
0007C0
0007C0
0007C0
000F80
000F80
000F80
001F00
001F00
001F00
003E00
003E00
003E00
007C00
007C00
007C00
00F800
00F800
00F800
01F000
01F000
01F000
03E000
000000
000000
000000
000000
000000
000000
000000
000000
ENDCHAR
STARTCHAR C234
ENCODING 176
SWIDTH 297 0
DWIDTH 11 0
BBX 23 37 -1 -8
BITMAP
000000
000000
000000
000000
000000
000000
0003E0
0007C0
0007C0
0007C0
000F80
000F80
000F80
001F00
001F00
001F00
003E00
003E00
003E00
007C00
007C00
007C00
00F800
00F800
00F800
01F000
01F000
01F000
03E000
000000
000000
000000
000000
000000
000000
000000
000000
ENDCHAR
STARTCHAR C235
ENCODING 178
SWIDTH 297 0
DWIDTH 11 0
BBX 23 37 -1 -8
BITMAP
000000
000000
000000
000000
000000
000000
0003E0
0007C0
0007C0
0007C0
000F80
000F80
000F80
001F00
001F00
001F00
003E00
003E00
003E00
007C00
007C00
007C00
00F800
00F800
00F800
01F000
01F000
01F000
03E000
000000
000000
000000
000000
000000
000000
000000
000000
ENDCHAR
STARTCHAR C236
ENCODING -1
SWIDTH 297 0
DWIDTH 11 0
BBX 23 37 -1 -8
BITMAP
000000
000000
000000
000000
000000
000000
0003E0
0007C0
0007C0
0007C0
000F80
000F80
000F80
001F00
001F00
001F00
003E00
003E00
003E00
007C00
007C00
007C00
00F800
00F800
00F800
01F000
01F000
01F000
03E000
000000
000000
000000
000000
000000
000000
000000
000000
ENDCHAR
STARTCHAR C237
ENCODING -1
SWIDTH 297 0
DWIDTH 11 0
BBX 23 37 -1 -8
BITMAP
000000
000000
000000
000000
000000
000000
0003E0
0007C0
0007C0
0007C0
000F80
000F80
000F80
001F00
001F00
001F00
003E00
003E00
003E00
007C00
007C00
007C00
00F800
00F800
00F800
01F000
01F000
01F000
03E000
000000
000000
000000
000000
000000
000000
000000
000000
ENDCHAR
STARTCHAR C240
ENCODING 160
SWIDTH 243 0
DWIDTH 9 0
BBX 21 37 -1 -8
BITMAP
000000
000000
000000
000000
000000
000000
000000
000000
000000
000000
000000
000000
000000
000000
000000
000000
000000
000000
000000
000000
000000
000000
000000
000000
000000
000000
000000
000000
000000
000000
000000
000000
000000
000000
000000
000000
000000
ENDCHAR
STARTCHAR exclamdown
ENCODING 161
SWIDTH 243 0
DWIDTH 9 0
BBX 21 37 -1 -8
BITMAP
000000
000000
000000
000000
000000
000000
000380
000700
000700
000000
000000
000000
000400
000800
000800
001C00
003800
003800
003800
007000
007000
007000
00E000
00E000
00E000
01C000
01C000
01C000
038000
000000
000000
000000
000000
000000
000000
000000
000000
ENDCHAR
STARTCHAR cent
ENCODING 162
SWIDTH 486 0
DWIDTH 18 0
BBX 30 37 -1 -8
BITMAP
00000000
00000000
00000000
00000000
00000000
00000000
00000000
00000000
00000000
00000000
00000C00
00000C00
00000C00
0003F800
000FFE00
001F3F00
0038CE00
0078CE00
0070C000
00E30000
00E30000
00E30000
01C60000
01CC0000
01EC3800
01D87000
01F1F000
00FFE000
007F0000
00C00000
00C00000
01800000
00000000
00000000
00000000
00000000
00000000
ENDCHAR
STARTCHAR sterling
ENCODING 163
SWIDTH 486 0
DWIDTH 18 0
BBX 30 37 -1 -8
BITMAP
00000000
00000000
00000000
00000000
00000000
00000000
00003C00
0001FE00
0003FF00
00078780
000E0700
001C0380
001C0380
00380000
00380000
001C0000
00380000
00FFC000
00FFC000
00180000
00180000
00180000
00300000
00300000
00700000
00DC1800
01FFF800
03FFF800
0307E000
00000000
00000000
00000000
00000000
00000000
00000000
00000000
00000000
ENDCHAR
STARTCHAR currency
ENCODING 164
SWIDTH 486 0
DWIDTH 18 0
BBX 30 37 -1 -8
BITMAP
00000000
00000000
00000000
00000000
00000000
00000000
00000000
00020100
00077B80
0003FF00
00070E00
00060600
000C0300
00180600
00180600
00180600
00181800
001C3800
001FF800
0077B800
00201000
00000000
00000000
00000000
00000000
00000000
00000000
00000000
00000000
00000000
00000000
00000000
00000000
00000000
00000000
00000000
00000000
ENDCHAR
STARTCHAR yen
ENCODING 165
SWIDTH 486 0
DWIDTH 18 0
BBX 30 37 -1 -8
BITMAP
00000000
00000000
00000000
00000000
00000000
00000000
000C0030
001C00E0
000C00C0
000E01C0
000C0300
000E0700
00060600
000E1C00
00061800
00073800
00066000
007FFE00
007FFE00
00078000
00030000
00030000
01FFF800
01FFF800
00060000
000C0000
000C0000
000C0000
00180000
00000000
00000000
00000000
00000000
00000000
00000000
00000000
00000000
ENDCHAR
STARTCHAR brokenbar
ENCODING 166
SWIDTH 189 0
DWIDTH 7 0
BBX 19 37 -1 -8
BITMAP
000000
000000
000000
000000
000000
000000
000700
000E00
000E00
000E00
001C00
001C00
001C00
003800
003800
000000
000000
000000
000000
00E000
00E000
00E000
01C000
01C000
01C000
038000
038000
038000
070000
000000
000000
000000
000000
000000
000000
000000
000000
ENDCHAR
STARTCHAR section
ENCODING 167
SWIDTH 486 0
DWIDTH 18 0
BBX 30 37 -1 -8
BITMAP
00000000
00000000
00000000
00000000
00000000
00000000
00001C00
0000FE00
0001C700
00038300
00070700
00070700
00078000
00078000
0003E000
0007F800
001CF800
00383C00
00701C00
00E01C00
00E01C00
00E01C00
00E03800
00F07000
007CE000
007F8000
001F0000
00078000
00078000
03838000
03838000
03070000
038E0000
01FC0000
00E00000
00000000
00000000
ENDCHAR
STARTCHAR dieresis
ENCODING 168
SWIDTH 297 0
DWIDTH 11 0
BBX 23 37 -1 -8
BITMAP
000000
000000
000000
000000
000000
000000
000738
000E70
000E70
000000
000000
000000
000000
000000
000000
000000
000000
000000
000000
000000
000000
000000
000000
000000
000000
000000
000000
000000
000000
000000
000000
000000
000000
000000
000000
000000
000000
ENDCHAR
STARTCHAR copyright
ENCODING 191
SWIDTH 648 0
DWIDTH 24 0
BBX 36 37 -1 -8
BITMAP
0000000000
0000000000
0000000000
0000000000
0000000000
0000000000
0000078000
00007FE000
0001E07800
0003801C00
000E001C00
000C000C00
00181F0600
00307F0C00
0020E30400
0060C00600
00C1800C00
00C1800C00
00C1800C00
0183001800
00838C1000
00C1FC3000
0181F06000
00C000C000
00E001C000
00E0070000
00781E0000
001FF80000
0007800000
0000000000
0000000000
0000000000
0000000000
0000000000
0000000000
0000000000
0000000000
ENDCHAR
STARTCHAR ordfeminine
ENCODING 170
SWIDTH 324 0
DWIDTH 12 0
BBX 24 37 -1 -8
BITMAP
000000
000000
000000
000000
000000
000000
0001E0
0007E0
000E30
0000F0
000FE0
001E60
001860
0031C0
003FC0
001E60
000000
000000
007F80
00FF00
000000
000000
000000
000000
000000
000000
000000
000000
000000
000000
000000
000000
000000
000000
000000
000000
000000
ENDCHAR
STARTCHAR guillemotleft
ENCODING 171
SWIDTH 486 0
DWIDTH 18 0
BBX 30 37 -1 -8
BITMAP
00000000
00000000
00000000
00000000
00000000
00000000
00000000
00000000
00000000
00000000
00000000
00000000
00000000
00000000
00000000
00070700
001C1C00
00383800
00707000
01C1C000
01818000
01C1C000
01C1C000
00E0E000
00707000
00707000
00000000
00000000
00000000
00000000
00000000
00000000
00000000
00000000
00000000
00000000
00000000
ENDCHAR
STARTCHAR logicalnot
ENCODING 172
SWIDTH 513 0
DWIDTH 19 0
BBX 31 37 -1 -8
BITMAP
00000000
00000000
00000000
00000000
00000000
00000000
00000000
00000000
00000000
00000000
00000000
00000000
00000000
00000000
00000000
00000000
00000000
007FFF80
007FFF80
00FFFF00
00000700
00000700
00000E00
00000E00
00000000
00000000
00000000
00000000
00000000
00000000
00000000
00000000
00000000
00000000
00000000
00000000
00000000
ENDCHAR
STARTCHAR hyphen
ENCODING 173
SWIDTH 270 0
DWIDTH 10 0
BBX 22 37 -1 -8
BITMAP
000000
000000
000000
000000
000000
000000
000000
000000
000000
000000
000000
000000
000000
000000
000000
000000
000000
000000
000000
000000
000000
01FE00
03FC00
000000
000000
000000
000000
000000
000000
000000
000000
000000
000000
000000
000000
000000
000000
ENDCHAR
STARTCHAR registered
ENCODING 174
SWIDTH 648 0
DWIDTH 24 0
BBX 36 37 -1 -8
BITMAP
0000000000
0000000000
0000000000
0000000000
0000000000
0000000000
0000078000
00007FE000
0001E07800
0003801C00
000E001C00
000C000C00
00187F0600
0030FE0C00
0020C30400
0060C30600
00C1860C00
00C1FC0C00
00C1FE0C00
01830C1800
00830C1000
00C30C3000
0186186000
00C000C000
00E001C000
00E0070000
00781E0000
001FF80000
0007800000
0000000000
0000000000
0000000000
0000000000
0000000000
0000000000
0000000000
0000000000
ENDCHAR
STARTCHAR macron
ENCODING 175
SWIDTH 432 0
DWIDTH 16 0
BBX 28 37 -1 -8
BITMAP
00000000
00000000
00000000
000FFFF0
001FFFE0
00000000
00000000
00000000
00000000
00000000
00000000
00000000
00000000
00000000
00000000
00000000
00000000
00000000
00000000
00000000
00000000
00000000
00000000
00000000
00000000
00000000
00000000
00000000
00000000
00000000
00000000
00000000
00000000
00000000
00000000
00000000
00000000
ENDCHAR
STARTCHAR degree
ENCODING 156
SWIDTH 297 0
DWIDTH 11 0
BBX 23 37 -1 -8
BITMAP
000000
000000
000000
000000
000000
000000
0001C0
000FE0
000C60
001830
003060
003060
0018C0
003F80
000E00
000000
000000
000000
000000
000000
000000
000000
000000
000000
000000
000000
000000
000000
000000
000000
000000
000000
000000
000000
000000
000000
000000
ENDCHAR
STARTCHAR plusminus
ENCODING 177
SWIDTH 513 0
DWIDTH 19 0
BBX 31 37 -1 -8
BITMAP
00000000
00000000
00000000
00000000
00000000
00000000
00000000
00003800
00003800
00003800
00007000
00007000
00007000
0000E000
007FFFC0
007FFFC0
00FFFF80
0001C000
0001C000
00038000
00038000
00038000
00070000
00070000
00000000
00000000
07FFFC00
07FFFC00
0FFFF800
00000000
00000000
00000000
00000000
00000000
00000000
00000000
00000000
ENDCHAR
STARTCHAR twosuperior
ENCODING 157
SWIDTH 243 0
DWIDTH 9 0
BBX 21 37 -1 -8
BITMAP
000000
000000
000000
000000
000000
000000
0003C0
000FC0
001860
000060
000380
000F00
001C00
003000
006000
007F80
00FF00
000000
000000
000000
000000
000000
000000
000000
000000
000000
000000
000000
000000
000000
000000
000000
000000
000000
000000
000000
000000
ENDCHAR
STARTCHAR threesuperior
ENCODING 179
SWIDTH 243 0
DWIDTH 9 0
BBX 21 37 -1 -8
BITMAP
000000
000000
000000
000000
000000
000000
0003C0
000FC0
001860
000060
000780
000780
0000C0
000180
006180
003F00
003C00
000000
000000
000000
000000
000000
000000
000000
000000
000000
000000
000000
000000
000000
000000
000000
000000
000000
000000
000000
000000
ENDCHAR
STARTCHAR acute
ENCODING 180
SWIDTH 297 0
DWIDTH 11 0
BBX 23 37 -1 -8
BITMAP
000000
000000
000000
000000
000000
000000
0001F0
000780
000E00
000800
000000
000000
000000
000000
000000
000000
000000
000000
000000
000000
000000
000000
000000
000000
000000
000000
000000
000000
000000
000000
000000
000000
000000
000000
000000
000000
000000
ENDCHAR
STARTCHAR mu
ENCODING 181
SWIDTH 486 0
DWIDTH 18 0
BBX 30 37 -1 -8
BITMAP
00000000
00000000
00000000
00000000
00000000
00000000
00000000
00000000
00000000
00000000
00000000
00000000
00000000
00380700
00380700
00380700
00700E00
00700E00
00700E00
00E01C00
00E01C00
00E01C00
01C03800
01C03800
01C03800
03C0F000
03E1F800
03FF3C00
07FC3800
07000000
07000000
0E000000
0E000000
0E000000
1C000000
1C000000
00000000
ENDCHAR
STARTCHAR paragraph
ENCODING 182
SWIDTH 459 0
DWIDTH 17 0
BBX 29 37 -1 -8
BITMAP
00000000
00000000
00000000
00000000
00000000
00000000
00007FE0
0003FFC0
0007F300
0007F300
001FE600
001FE600
001FE600
003FCC00
003FCC00
001FCC00
003F9800
001F9800
00079800
00033000
00033000
00033000
00066000
00066000
00066000
000CC000
000CC000
000CC000
00198000
00198000
00198000
00330000
00330000
00330000
00000000
00000000
00000000
ENDCHAR
STARTCHAR periodcentered
ENCODING 183
SWIDTH 243 0
DWIDTH 9 0
BBX 21 37 -1 -8
BITMAP
000000
000000
000000
000000
000000
000000
000000
000000
000000
000000
000000
000000
000000
000000
000000
001C00
003800
003800
000000
000000
000000
000000
000000
000000
000000
000000
000000
000000
000000
000000
000000
000000
000000
000000
000000
000000
000000
ENDCHAR
STARTCHAR cedilla
ENCODING 184
SWIDTH 297 0
DWIDTH 11 0
BBX 23 37 -1 -8
BITMAP
000000
000000
000000
000000
000000
000000
000000
000000
000000
000000
000000
000000
000000
000000
000000
000000
000000
000000
000000
000000
000000
000000
000000
000000
000000
000000
000000
000000
000000
018000
018000
060000
07C000
006000
00C000
1F8000
000000
ENDCHAR
STARTCHAR onesuperior
ENCODING 185
SWIDTH 243 0
DWIDTH 9 0
BBX 21 37 -1 -8
BITMAP
000000
000000
000000
000000
000000
000000
000180
000F00
000F00
000300
000600
000600
000600
000C00
000C00
000C00
001800
000000
000000
000000
000000
000000
000000
000000
000000
000000
000000
000000
000000
000000
000000
000000
000000
000000
000000
000000
000000
ENDCHAR
STARTCHAR ordmasculine
ENCODING 186
SWIDTH 324 0
DWIDTH 12 0
BBX 24 37 -1 -8
BITMAP
000000
000000
000000
000000
000000
000000
0001E0
0007E0
000E70
000C30
001860
001860
001860
0039C0
001F80
000F00
000000
000000
007F80
00FF00
000000
000000
000000
000000
000000
000000
000000
000000
000000
000000
000000
000000
000000
000000
000000
000000
000000
ENDCHAR
STARTCHAR guillemotright
ENCODING 187
SWIDTH 486 0
DWIDTH 18 0
BBX 30 37 -1 -8
BITMAP
00000000
00000000
00000000
00000000
00000000
00000000
00000000
00000000
00000000
00000000
00000000
00000000
00000000
00000000
00000000
00383800
00383800
001C1C00
000E0E00
000E0E00
00060600
000E0E00
00383800
00707000
00E0E000
03838000
00000000
00000000
00000000
00000000
00000000
00000000
00000000
00000000
00000000
00000000
00000000
ENDCHAR
STARTCHAR onequarter
ENCODING 188
SWIDTH 621 0
DWIDTH 23 0
BBX 35 37 -1 -8
BITMAP
0000000000
0000000000
0000000000
0000000000
0000000000
0000000000
0000C00700
0007801C00
0007801800
0001803800
000300E000
000300C000
000301C000
0006070000
0006060000
00060E0000
000C380000
0000300000
0000703000
0001C0E000
000181E000
0003836000
000E06C000
000C0CC000
001C18C000
00703FC000
00603FC000
00E0018000
0380030000
0000000000
0000000000
0000000000
0000000000
0000000000
0000000000
0000000000
0000000000
ENDCHAR
STARTCHAR onehalf
ENCODING 189
SWIDTH 621 0
DWIDTH 23 0
BBX 35 37 -1 -8
BITMAP
0000000000
0000000000
0000000000
0000000000
0000000000
0000000000
0000C00700
0007801C00
0007801800
0001803800
000300E000
000300C000
000301C000
0006070000
0006060000
00060E0000
000C380000
0000300000
000071E000
0001C7E000
00018C3000
00038C3000
000E01C000
000C078000
001C0E0000
0070180000
0060300000
00E03FC000
03807F8000
0000000000
0000000000
0000000000
0000000000
0000000000
0000000000
0000000000
0000000000
ENDCHAR
STARTCHAR threequarters
ENCODING 190
SWIDTH 621 0
DWIDTH 23 0
BBX 35 37 -1 -8
BITMAP
0000000000
0000000000
0000000000
0000000000
0000000000
0000000000
0001E00700
0007E01C00
000C301800
0000303800
0003C0E000
0003C0C000
000061C000
0000C70000
0030C60000
001F8E0000
001E380000
0000300000
0000703000
0001C0E000
000181E000
0003836000
000E06C000
000C0CC000
001C18C000
00703FC000
00603FC000
00E0018000
0380030000
0000000000
0000000000
0000000000
0000000000
0000000000
0000000000
0000000000
0000000000
ENDCHAR
STARTCHAR questiondown
ENCODING 169
SWIDTH 459 0
DWIDTH 17 0
BBX 29 37 -1 -8
BITMAP
00000000
00000000
00000000
00000000
00000000
00000000
00003800
00007000
00007000
00000000
00000000
00000000
0000E000
0001C000
00038000
00078000
001E0000
003C0000
00780000
00E00000
01C00000
01C00000
03803800
03803800
01C07000
03C1E000
01FFC000
00FF8000
007C0000
00000000
00000000
00000000
00000000
00000000
00000000
00000000
00000000
ENDCHAR
STARTCHAR cyr-A
ENCODING 225
SWIDTH 594 0
DWIDTH 22 0
BBX 34 37 -1 -8
BITMAP
0000000000
0000000000
0000000000
0000000000
0000000000
0000000000
00000F8000
00001F0000
00003F8000
00003F8000
0000770000
0000F78000
0000E38000
0001C70000
0003C78000
0003838000
000F078000
000E038000
000E038000
003C078000
0038038000
003FFF8000
00FFFF8000
00FFFF8000
01E003C000
0380038000
0380038000
078003C000
0E00038000
0000000000
0000000000
0000000000
0000000000
0000000000
0000000000
0000000000
0000000000
ENDCHAR
STARTCHAR cyr-Be
ENCODING 226
SWIDTH 567 0
DWIDTH 21 0
BBX 33 37 -1 -8
BITMAP
0000000000
0000000000
0000000000
0000000000
0000000000
0000000000
0003FFFC00
0007FFF800
0007FFF800
0007000000
000E000000
000E000000
000E000000
001C000000
001C000000
001FFF0000
003FFF0000
003FFF8000
003803C000
0070038000
007001C000
007001C000
00E0038000
00E0038000
00E0078000
01C01E0000
01FFFE0000
01FFFC0000
03FFE00000
0000000000
0000000000
0000000000
0000000000
0000000000
0000000000
0000000000
0000000000
ENDCHAR
STARTCHAR cyr-Ve
ENCODING 247
SWIDTH 567 0
DWIDTH 21 0
BBX 33 37 -1 -8
BITMAP
0000000000
0000000000
0000000000
0000000000
0000000000
0000000000
0003FFC000
0007FFE000
0007FFF000
0007007000
000E007000
000E007000
000E007000
001C00E000
001C01C000
001FFFC000
003FFF0000
003FFF8000
003803C000
0070038000
007001C000
007001C000
00E0038000
00E0038000
00E0078000
01C01E0000
01FFFE0000
01FFFC0000
03FFE00000
0000000000
0000000000
0000000000
0000000000
0000000000
0000000000
0000000000
0000000000
ENDCHAR
STARTCHAR cyr-Ghe
ENCODING 231
SWIDTH 567 0
DWIDTH 21 0
BBX 33 37 -1 -8
BITMAP
0000000000
0000000000
0000000000
0000000000
0000000000
0000000000
0003FFFE00
0007FFFC00
0007FFFC00
0007000000
000E000000
000E000000
000E000000
001C000000
001C000000
001C000000
0038000000
0038000000
0038000000
0070000000
0070000000
0070000000
00E0000000
00E0000000
00E0000000
01C0000000
01C0000000
01C0000000
0380000000
0000000000
0000000000
0000000000
0000000000
0000000000
0000000000
0000000000
0000000000
ENDCHAR
STARTCHAR cyr-De
ENCODING 228
SWIDTH 621 0
DWIDTH 23 0
BBX 35 37 -1 -8
BITMAP
0000000000
0000000000
0000000000
0000000000
0000000000
0000000000
00007FFC00
0000FFF800
0000FFF800
0000E03800
0001C07000
0001C07000
0001C07000
000380E000
000380E000
000380E000
000701C000
000701C000
000701C000
000E038000
000E038000
000E038000
001C070000
001C070000
003C070000
00F00E0000
07FFFFC000
07FFFFC000
0FFFFF8000
0E00038000
0E00038000
1C00070000
0000000000
0000000000
0000000000
0000000000
0000000000
ENDCHAR
STARTCHAR cyr-Ie
ENCODING 229
SWIDTH 567 0
DWIDTH 21 0
BBX 33 37 -1 -8
BITMAP
0000000000
0000000000
0000000000
0000000000
0000000000
0000000000
0003FFFE00
0007FFFC00
0007FFFC00
0007000000
000E000000
000E000000
000E000000
001C000000
001C000000
001FFFC000
003FFF8000
003FFF8000
0038000000
0070000000
0070000000
0070000000
00E0000000
00E0000000
00E0000000
01C0000000
01FFFF0000
01FFFF0000
03FFFE0000
0000000000
0000000000
0000000000
0000000000
0000000000
0000000000
0000000000
0000000000
ENDCHAR
STARTCHAR cyr-Zhe
ENCODING 246
SWIDTH 837 0
DWIDTH 31 0
BBX 43 37 -1 -8
BITMAP
000000000000
000000000000
000000000000
000000000000
000000000000
000000000000
000700700700
000F00E01E00
000780E03C00
0003C0E07800
0003C1C1E000
0001E1C3C000
0000F1C78000
0000F39E0000
00007BBC0000
00003FF80000
00003FE00000
00007FF00000
0000F7780000
0003CE780000
00078E3C0000
000F0E1E0000
003C1C1E0000
00781C0F0000
00F01C078000
03C038078000
07803803C000
0F003801E000
1C007001C000
000000000000
000000000000
000000000000
000000000000
000000000000
000000000000
000000000000
000000000000
ENDCHAR
STARTCHAR cyr-Ze
ENCODING 250
SWIDTH 513 0
DWIDTH 19 0
BBX 31 37 -1 -8
BITMAP
00000000
00000000
00000000
00000000
00000000
00000000
0000FFC0
0007FFC0
000FFFE0
000E01E0
000001C0
000001C0
000001C0
00000380
00000380
00000700
0007FC00
0007FE00
0007FF00
00001F00
00000700
00000700
00000E00
00000E00
03800E00
07803C00
03FFF800
03FFF000
01FFC000
00000000
00000000
00000000
00000000
00000000
00000000
00000000
00000000
ENDCHAR
STARTCHAR cyr-I
ENCODING 233
SWIDTH 648 0
DWIDTH 24 0
BBX 36 37 -1 -8
BITMAP
0000000000
0000000000
0000000000
0000000000
0000000000
0000000000
0003800380
0007000700
0007000700
0007000700
000E001E00
000E003E00
000E007E00
001C01FC00
001C03DC00
001C079C00
00381E3800
00383C3800
0038783800
0071E07000
0073C07000
0077807000
00FE00E000
00FC00E000
00F800E000
01E001C000
01C001C000
01C001C000
0380038000
0000000000
0000000000
0000000000
0000000000
0000000000
0000000000
0000000000
0000000000
ENDCHAR
STARTCHAR cyr-I-short
ENCODING 234
SWIDTH 648 0
DWIDTH 24 0
BBX 36 37 -1 -8
BITMAP
0000000000
0000000000
0000000000
00001E3C00
00001FF000
00000FE000
0003800380
0007000700
0007000700
0007000700
000E001E00
000E003E00
000E007E00
001C01FC00
001C03DC00
001C079C00
00381E3800
00383C3800
0038783800
0071E07000
0073C07000
0077807000
00FE00E000
00FC00E000
00F800E000
01E001C000
01C001C000
01C001C000
0380038000
0000000000
0000000000
0000000000
0000000000
0000000000
0000000000
0000000000
0000000000
ENDCHAR
STARTCHAR cyr-Ka
ENCODING 235
SWIDTH 567 0
DWIDTH 21 0
BBX 33 37 -1 -8
BITMAP
0000000000
0000000000
0000000000
0000000000
0000000000
0000000000
0007003C00
000E00F000
000E01E000
000E03C000
001C0F0000
001C1E0000
001C3C0000
0038F00000
0039E00000
003BC00000
007F800000
007FC00000
007DE00000
00F1E00000
00E0F00000
00E0780000
01C0780000
01C03C0000
01C01E0000
03801E0000
03800F0000
0380078000
0700070000
0000000000
0000000000
0000000000
0000000000
0000000000
0000000000
0000000000
0000000000
ENDCHAR
STARTCHAR cyr-El
ENCODING 236
SWIDTH 567 0
DWIDTH 21 0
BBX 33 37 -1 -8
BITMAP
0000000000
0000000000
0000000000
0000000000
0000000000
0000000000
0000FFFC00
0001FFF800
0001FFF800
0001C03800
0003807000
0003807000
0003807000
000700E000
000700E000
000700E000
000E01C000
000E01C000
000E01C000
001C038000
001C038000
001C038000
0038070000
0038070000
0038070000
00700E0000
00700E0000
03F00E0000
07C01C0000
0000000000
0000000000
0000000000
0000000000
0000000000
0000000000
0000000000
0000000000
ENDCHAR
STARTCHAR cyr-Em
ENCODING 237
SWIDTH 702 0
DWIDTH 26 0
BBX 38 37 -1 -8
BITMAP
0000000000
0000000000
0000000000
0000000000
0000000000
0000000000
0003C001E0
0007C007C0
0007C007C0
0007C007C0
000FC01F80
000FC01F80
000FC01F80
001FC07F00
001DC07700
001DC07700
003BC1EE00
0039C1CE00
0039C1CE00
0073C79C00
0071C71C00
0071C71C00
00E3DE3800
00E1DC3800
00E1DC3800
01C3F87000
01C1F07000
01C1F07000
0383E0E000
0000000000
0000000000
0000000000
0000000000
0000000000
0000000000
0000000000
0000000000
ENDCHAR
STARTCHAR cyr-En
ENCODING 238
SWIDTH 621 0
DWIDTH 23 0
BBX 35 37 -1 -8
BITMAP
0000000000
0000000000
0000000000
0000000000
0000000000
0000000000
0003800700
0007000E00
0007000E00
0007000E00
000E001C00
000E001C00
000E001C00
001C003800
001C003800
001FFFF800
003FFFF000
003FFFF000
0038007000
007000E000
007000E000
007000E000
00E001C000
00E001C000
00E001C000
01C0038000
01C0038000
01C0038000
0380070000
0000000000
0000000000
0000000000
0000000000
0000000000
0000000000
0000000000
0000000000
ENDCHAR
STARTCHAR cyr-O
ENCODING 239
SWIDTH 675 0
DWIDTH 25 0
BBX 37 37 -1 -8
BITMAP
0000000000
0000000000
0000000000
0000000000
0000000000
0000000000
000007E000
00007FF800
0000FFFC00
0001F03E00
0007801E00
000F000F00
000E000700
001C000E00
0038000700
0038000700
0070000E00
0070000E00
0070000E00
00E0001C00
00E0001C00
0070003800
00E0007000
00F000F000
007801E000
007C0F8000
003FFF0000
001FFE0000
0007E00000
0000000000
0000000000
0000000000
0000000000
0000000000
0000000000
0000000000
0000000000
ENDCHAR
STARTCHAR cyr-Pe
ENCODING 240
SWIDTH 621 0
DWIDTH 23 0
BBX 35 37 -1 -8
BITMAP
0000000000
0000000000
0000000000
0000000000
0000000000
0000000000
0003FFFF00
0007FFFE00
0007FFFE00
0007000E00
000E001C00
000E001C00
000E001C00
001C003800
001C003800
001C003800
0038007000
0038007000
0038007000
007000E000
007000E000
007000E000
00E001C000
00E001C000
00E001C000
01C0038000
01C0038000
01C0038000
0380070000
0000000000
0000000000
0000000000
0000000000
0000000000
0000000000
0000000000
0000000000
ENDCHAR
STARTCHAR cyr-Er
ENCODING 242
SWIDTH 567 0
DWIDTH 21 0
BBX 33 37 -1 -8
BITMAP
0000000000
0000000000
0000000000
0000000000
0000000000
0000000000
0003FFE000
0007FFF000
0007FFF800
0007007800
000E007800
000E003800
000E003800
001C007000
001C007000
001C00F000
003803C000
003FFFC000
003FFF8000
007FFC0000
0070000000
0070000000
00E0000000
00E0000000
00E0000000
01C0000000
01C0000000
01C0000000
0380000000
0000000000
0000000000
0000000000
0000000000
0000000000
0000000000
0000000000
0000000000
ENDCHAR
STARTCHAR cyr-Es
ENCODING 243
SWIDTH 621 0
DWIDTH 23 0
BBX 35 37 -1 -8
BITMAP
0000000000
0000000000
0000000000
0000000000
0000000000
0000000000
000007E000
00007FF800
0000FFFC00
0001F03E00
0007801E00
000F000F00
000E000700
001C000E00
0038000000
0038000000
0070000000
0070000000
0070000000
00E0000000
00E0000000
0070003800
00E0007000
00F000F000
007801E000
007C0F8000
003FFF0000
001FFE0000
0007E00000
0000000000
0000000000
0000000000
0000000000
0000000000
0000000000
0000000000
0000000000
ENDCHAR
STARTCHAR cyr-Te
ENCODING 244
SWIDTH 540 0
DWIDTH 20 0
BBX 32 37 -1 -8
BITMAP
00000000
00000000
00000000
00000000
00000000
00000000
000FFFFE
001FFFFC
001FFFFC
00001C00
00003800
00003800
00003800
00007000
00007000
00007000
0000E000
0000E000
0000E000
0001C000
0001C000
0001C000
00038000
00038000
00038000
00070000
00070000
00070000
000E0000
00000000
00000000
00000000
00000000
00000000
00000000
00000000
00000000
ENDCHAR
STARTCHAR cyr-U
ENCODING 245
SWIDTH 594 0
DWIDTH 22 0
BBX 34 37 -1 -8
BITMAP
0000000000
0000000000
0000000000
0000000000
0000000000
0000000000
000E000380
001E000F00
000F001E00
0007803C00
0007007000
000780F000
0003C1E000
0003C78000
0001C70000
0001EF0000
0001FC0000
0000F80000
0000F00000
0001C00000
0003C00000
0003800000
000F000000
000E000000
001C000000
0078000000
00F0000000
03E0000000
0780000000
0000000000
0000000000
0000000000
0000000000
0000000000
0000000000
0000000000
0000000000
ENDCHAR
STARTCHAR cyr-Ef
ENCODING 230
SWIDTH 729 0
DWIDTH 27 0
BBX 39 37 -1 -8
BITMAP
0000000000
0000000000
0000000000
0000000000
0000000000
0000000000
000007F000
00007FFC00
0000FFFE00
0001F39F00
0007870F00
000F070780
000E070380
001C0E0700
00380E0380
00380E0380
00701C0700
00701C0700
00701C0700
0070381C00
0070381C00
0078383C00
007870F000
003E73E000
001FFFC000
001FFF0000
0003F80000
0000E00000
0001C00000
0000000000
0000000000
0000000000
0000000000
0000000000
0000000000
0000000000
0000000000
ENDCHAR
STARTCHAR cyr-Kha
ENCODING 232
SWIDTH 567 0
DWIDTH 21 0
BBX 33 37 -1 -8
BITMAP
0000000000
0000000000
0000000000
0000000000
0000000000
0000000000
0007000E00
000F003C00
0007003800
0007807800
000781E000
0003C3C000
0001C38000
0003CF0000
0001FE0000
0000FC0000
0000F00000
0000F00000
0001F80000
0007F80000
0007380000
000F3C0000
003C3C0000
00781E0000
00700E0000
01E01E0000
03C00F0000
0780078000
0E00070000
0000000000
0000000000
0000000000
0000000000
0000000000
0000000000
0000000000
0000000000
ENDCHAR
STARTCHAR cyr-Tse
ENCODING 227
SWIDTH 648 0
DWIDTH 24 0
BBX 36 37 -1 -8
BITMAP
0000000000
0000000000
0000000000
0000000000
0000000000
0000000000
0003800700
0007000E00
0007000E00
0007000E00
000E001C00
000E001C00
000E001C00
001C003800
001C003800
001C003800
0038007000
0038007000
0038007000
007000E000
007000E000
007000E000
00E001C000
00E001C000
00E001C000
01C0038000
01FFFFE000
01FFFFE000
03FFFFC000
000001C000
000001C000
0000038000
0000000000
0000000000
0000000000
0000000000
0000000000
ENDCHAR
STARTCHAR cyr-Che
ENCODING 254
SWIDTH 621 0
DWIDTH 23 0
BBX 35 37 -1 -8
BITMAP
0000000000
0000000000
0000000000
0000000000
0000000000
0000000000
0003800700
0007000E00
0007000E00
0007000E00
000E001C00
000E001C00
000E001C00
001C003800
001E003800
001FFFF800
001FFFF000
000FFFF000
0000007000
000000E000
000000E000
000000E000
000001C000
000001C000
000001C000
0000038000
0000038000
0000038000
0000070000
0000000000
0000000000
0000000000
0000000000
0000000000
0000000000
0000000000
0000000000
ENDCHAR
STARTCHAR cyr-Sha
ENCODING 251
SWIDTH 783 0
DWIDTH 29 0
BBX 41 37 -1 -8
BITMAP
000000000000
000000000000
000000000000
000000000000
000000000000
000000000000
000E00E00E00
001C01C01C00
001C01C01C00
001C01C01C00
003803803800
003803803800
003803803800
007007007000
007007007000
007007007000
00E00E00E000
00E00E00E000
00E00E00E000
01C01C01C000
01C01C01C000
01C01C01C000
038038038000
038038038000
038038038000
070070070000
07FFFFFF0000
07FFFFFF0000
0FFFFFFE0000
000000000000
000000000000
000000000000
000000000000
000000000000
000000000000
000000000000
000000000000
ENDCHAR
STARTCHAR cyr-Shcha
ENCODING 253
SWIDTH 837 0
DWIDTH 31 0
BBX 43 37 -1 -8
BITMAP
000000000000
000000000000
000000000000
000000000000
000000000000
000000000000
000E00E00E00
001C01C01C00
001C01C01C00
001C01C01C00
003803803800
003803803800
003803803800
007007007000
007007007000
007007007000
00E00E00E000
00E00E00E000
00E00E00E000
01C01C01C000
01C01C01C000
01C01C01C000
038038038000
038038038000
038038038000
070070070000
07FFFFFFC000
07FFFFFFC000
0FFFFFFF8000
000000038000
000000038000
000000070000
000000000000
000000000000
000000000000
000000000000
000000000000
ENDCHAR
STARTCHAR cyr-Ier
ENCODING 255
SWIDTH 648 0
DWIDTH 24 0
BBX 36 37 -1 -8
BITMAP
0000000000
0000000000
0000000000
0000000000
0000000000
0000000000
000FE00000
001FC00000
001FC00000
0001C00000
0003800000
0003800000
0003800000
0007000000
0007000000
0007000000
000FFFF000
000FFFF800
000FFFFC00
001C007800
001C003800
001C003800
0038007000
0038007000
0038007000
007001E000
007FFFE000
007FFFC000
00FFFF0000
0000000000
0000000000
0000000000
0000000000
0000000000
0000000000
0000000000
0000000000
ENDCHAR
STARTCHAR cyr-Iery
ENCODING 249
SWIDTH 702 0
DWIDTH 26 0
BBX 38 37 -1 -8
BITMAP
0000000000
0000000000
0000000000
0000000000
0000000000
0000000000
00070000E0
000E0001C0
000E0001C0
000E0001C0
001C000380
001C000380
001C000380
0038000700
0038000700
0038000700
007FFF8E00
007FFFCE00
007FFFEE00
00E003DC00
00E001DC00
00E001DC00
01C003B800
01C003B800
01C003B800
03800F7000
03FFFF7000
03FFFE7000
07FFF8E000
0000000000
0000000000
0000000000
0000000000
0000000000
0000000000
0000000000
0000000000
ENDCHAR
STARTCHAR cyr-Ierik
ENCODING 248
SWIDTH 621 0
DWIDTH 23 0
BBX 35 37 -1 -8
BITMAP
0000000000
0000000000
0000000000
0000000000
0000000000
0000000000
0003800000
0007000000
0007000000
0007000000
000E000000
000E000000
000E000000
001C000000
001C000000
001C000000
003FFFC000
003FFFE000
003FFFF000
007001E000
007000E000
007000E000
00E001C000
00E001C000
00E001C000
01C0078000
01FFFF8000
01FFFF0000
03FFFC0000
0000000000
0000000000
0000000000
0000000000
0000000000
0000000000
0000000000
0000000000
ENDCHAR
STARTCHAR cyr-E-rev
ENCODING 252
SWIDTH 648 0
DWIDTH 24 0
BBX 36 37 -1 -8
BITMAP
0000000000
0000000000
0000000000
0000000000
0000000000
0000000000
00001F8000
0001FFE000
0003FFF000
0007C0F800
001E007800
001C003C00
0000001C00
0000003800
0000001C00
0000001C00
00007FF800
00007FF800
00007FF800
0000007000
0000007000
000000E000
000001C000
01C003C000
01E0078000
01F03E0000
00FFFC0000
007FF80000
001F800000
0000000000
0000000000
0000000000
0000000000
0000000000
0000000000
0000000000
0000000000
ENDCHAR
STARTCHAR cyr-Yu
ENCODING 224
SWIDTH 783 0
DWIDTH 29 0
BBX 41 37 -1 -8
BITMAP
000000000000
000000000000
000000000000
000000000000
000000000000
000000000000
0007007C0000
000E07FF0000
000E0FFF8000
000E1F07C000
001C7803C000
001CF001E000
001CE000E000
0039C001C000
003B8000E000
003B8000E000
007F0001C000
007F0001C000
007F0001C000
00EE00038000
00EE00038000
00E700070000
01CE000E0000
01CF001E0000
01C7803C0000
0387C1F00000
0383FFE00000
0381FFC00000
07007C000000
000000000000
000000000000
000000000000
000000000000
000000000000
000000000000
000000000000
000000000000
ENDCHAR
STARTCHAR cyr-Ya
ENCODING 241
SWIDTH 567 0
DWIDTH 21 0
BBX 33 37 -1 -8
BITMAP
0000000000
0000000000
0000000000
0000000000
0000000000
0000000000
0001FFFC00
0007FFF800
000FFFF800
000E003800
001C007000
001C007000
001C007000
003800E000
003800E000
003C00E000
007FFFC000
003FFFC000
001FFFC000
0000F38000
0001E38000
0003C38000
000F070000
001E070000
003C070000
00F00E0000
01E00E0000
03C00E0000
07001C0000
0000000000
0000000000
0000000000
0000000000
0000000000
0000000000
0000000000
0000000000
ENDCHAR
STARTCHAR cyr-a
ENCODING 193
SWIDTH 486 0
DWIDTH 18 0
BBX 30 37 -1 -8
BITMAP
00000000
00000000
00000000
00000000
00000000
00000000
00000000
00000000
00000000
00000000
00000000
00000000
00000000
0007F800
001FFE00
001C0E00
00700E00
00000E00
00001E00
001FFC00
007FDC00
00F01C00
01C03800
03803800
03803800
0700F000
0381F800
03FFBC00
01FC3800
00000000
00000000
00000000
00000000
00000000
00000000
00000000
00000000
ENDCHAR
STARTCHAR cyr-be
ENCODING 194
SWIDTH 486 0
DWIDTH 18 0
BBX 30 37 -1 -8
BITMAP
00000000
00000000
00000000
00000000
00000000
00000000
00000060
000007C0
00007F80
0003FE00
000F8000
001F0000
001C0000
0073F000
007FFC00
007E1E00
00F81E00
00F00E00
00E00700
01C00E00
01C00E00
01C00E00
03801C00
03801C00
01C03800
03C0F000
01E1E000
00FFC000
007E0000
00000000
00000000
00000000
00000000
00000000
00000000
00000000
00000000
ENDCHAR
STARTCHAR cyr-ve
ENCODING 215
SWIDTH 486 0
DWIDTH 18 0
BBX 30 37 -1 -8
BITMAP
00000000
00000000
00000000
00000000
00000000
00000000
00000000
00000000
00000000
00000000
00000000
00000000
00000000
003FF800
003FFC00
00381E00
00701C00
00701C00
00701C00
00FFF000
00FFF000
00E03800
01C03800
01C03800
01C03800
03807000
0380E000
03FFE000
07FF8000
00000000
00000000
00000000
00000000
00000000
00000000
00000000
00000000
ENDCHAR
STARTCHAR cyr-ghe
ENCODING 199
SWIDTH 432 0
DWIDTH 16 0
BBX 28 37 -1 -8
BITMAP
00000000
00000000
00000000
00000000
00000000
00000000
00000000
00000000
00000000
00000000
00000000
00000000
00000000
003FFE00
003FFE00
00380000
00700000
00700000
00700000
00E00000
00E00000
00E00000
01C00000
01C00000
01C00000
03800000
03800000
03800000
07000000
00000000
00000000
00000000
00000000
00000000
00000000
00000000
00000000
ENDCHAR
STARTCHAR cyr-de
ENCODING 196
SWIDTH 594 0
DWIDTH 22 0
BBX 34 37 -1 -8
BITMAP
0000000000
0000000000
0000000000
0000000000
0000000000
0000000000
0000000000
0000000000
0000000000
0000000000
0000000000
0000000000
0000000000
0007FFC000
0007FFC000
000701C000
000E038000
000E038000
000E038000
001C070000
001C070000
001C070000
00380E0000
00380E0000
00380E0000
00701C0000
00E01C0000
07FFFF8000
0FFFFF0000
0E00070000
0E00070000
1C000E0000
0000000000
0000000000
0000000000
0000000000
0000000000
ENDCHAR
STARTCHAR cyr-ie
ENCODING 197
SWIDTH 459 0
DWIDTH 17 0
BBX 29 37 -1 -8
BITMAP
00000000
00000000
00000000
00000000
00000000
00000000
00000000
00000000
00000000
00000000
00000000
00000000
00000000
0007F000
001FFC00
003E3E00
00701C00
00F01E00
00E00E00
01FFFC00
01FFFC00
01C00000
03800000
03800000
03C07800
0380E000
03E3E000
01FFC000
00FE0000
00000000
00000000
00000000
00000000
00000000
00000000
00000000
00000000
ENDCHAR
STARTCHAR cyr-zhe
ENCODING 214
SWIDTH 675 0
DWIDTH 25 0
BBX 37 37 -1 -8
BITMAP
0000000000
0000000000
0000000000
0000000000
0000000000
0000000000
0000000000
0000000000
0000000000
0000000000
0000000000
0000000000
0000000000
00381C0E00
003C1C1E00
001E1C3C00
001E38F000
000F39E000
0007BBC000
0007FF0000
0007FF0000
000F778000
003CE78000
0078E3C000
00F0E1E000
03C1C1E000
0781C0F000
0F01C07800
1C03807000
0000000000
0000000000
0000000000
0000000000
0000000000
0000000000
0000000000
0000000000
ENDCHAR
STARTCHAR cyr-z
ENCODING 218
SWIDTH 432 0
DWIDTH 16 0
BBX 28 37 -1 -8
BITMAP
00000000
00000000
00000000
00000000
00000000
00000000
00000000
00000000
00000000
00000000
00000000
00000000
00000000
000FF000
001FF800
003C3800
00703800
00003800
00003800
0007E000
0007E000
0000F000
00007000
00007000
03807000
0700E000
0381C000
03FFC000
03FE0000
00000000
00000000
00000000
00000000
00000000
00000000
00000000
00000000
ENDCHAR
STARTCHAR cyr-i
ENCODING 201
SWIDTH 486 0
DWIDTH 18 0
BBX 30 37 -1 -8
BITMAP
00000000
00000000
00000000
00000000
00000000
00000000
00000000
00000000
00000000
00000000
00000000
00000000
00000000
00380700
00380700
00380700
00701E00
00703E00
00707E00
00E1FC00
00E3DC00
00E79C00
01DE3800
01FC3800
01F83800
03E07000
03C07000
03807000
0700E000
00000000
00000000
00000000
00000000
00000000
00000000
00000000
00000000
ENDCHAR
STARTCHAR cyr-i-short
ENCODING 202
SWIDTH 486 0
DWIDTH 18 0
BBX 30 37 -1 -8
BITMAP
00000000
00000000
00000000
00000000
00000000
00000000
00000000
00000000
00000000
0001CE00
00039C00
0001F800
0000F000
00380700
00380700
00380700
00701E00
00703E00
00707E00
00E1FC00
00E3DC00
00E79C00
01DE3800
01FC3800
01F83800
03E07000
03C07000
03807000
0700E000
00000000
00000000
00000000
00000000
00000000
00000000
00000000
00000000
ENDCHAR
STARTCHAR cyr-ka
ENCODING 203
SWIDTH 432 0
DWIDTH 16 0
BBX 28 37 -1 -8
BITMAP
00000000
00000000
00000000
00000000
00000000
00000000
00000000
00000000
00000000
00000000
00000000
00000000
00000000
00381C00
00383800
00387000
0071C000
00738000
00770000
00FE0000
00FF0000
00F78000
01C78000
01C38000
01C3C000
0383C000
0381E000
0380E000
0701E000
00000000
00000000
00000000
00000000
00000000
00000000
00000000
00000000
ENDCHAR
STARTCHAR cyr-el
ENCODING 204
SWIDTH 486 0
DWIDTH 18 0
BBX 30 37 -1 -8
BITMAP
00000000
00000000
00000000
00000000
00000000
00000000
00000000
00000000
00000000
00000000
00000000
00000000
00000000
000FFF00
000FFF00
000E0700
001C0E00
001C0E00
001C0E00
00381C00
00381C00
00381C00
00703800
00703800
00703800
00E07000
00E07000
07E07000
0F80E000
00000000
00000000
00000000
00000000
00000000
00000000
00000000
00000000
ENDCHAR
STARTCHAR cyr-em
ENCODING 205
SWIDTH 648 0
DWIDTH 24 0
BBX 36 37 -1 -8
BITMAP
0000000000
0000000000
0000000000
0000000000
0000000000
0000000000
0000000000
0000000000
0000000000
0000000000
0000000000
0000000000
0000000000
0038001C00
003C003C00
003E007C00
007E01F800
007F03F800
007787B800
00E79E7000
00E3FC7000
00E1F87000
01C1E0E000
01C0C0E000
01C000E000
038001C000
038001C000
038001C000
0700038000
0000000000
0000000000
0000000000
0000000000
0000000000
0000000000
0000000000
0000000000
ENDCHAR
STARTCHAR cyr-en
ENCODING 206
SWIDTH 486 0
DWIDTH 18 0
BBX 30 37 -1 -8
BITMAP
00000000
00000000
00000000
00000000
00000000
00000000
00000000
00000000
00000000
00000000
00000000
00000000
00000000
00380700
00380700
00380700
00700E00
00700E00
00700E00
00E01C00
00FFFC00
00FFFC00
01C03800
01C03800
01C03800
03807000
03807000
03807000
0700E000
00000000
00000000
00000000
00000000
00000000
00000000
00000000
00000000
ENDCHAR
STARTCHAR cyr-o
ENCODING 207
SWIDTH 486 0
DWIDTH 18 0
BBX 30 37 -1 -8
BITMAP
00000000
00000000
00000000
00000000
00000000
00000000
00000000
00000000
00000000
00000000
00000000
00000000
00000000
0007F800
001FFE00
003E1F00
00700E00
00F00F00
00E00700
01C00E00
01C00E00
01C00E00
03801C00
03801C00
03C03C00
03807000
03E1F000
01FFE000
00FF0000
00000000
00000000
00000000
00000000
00000000
00000000
00000000
00000000
ENDCHAR
STARTCHAR cyr-pe
ENCODING 208
SWIDTH 486 0
DWIDTH 18 0
BBX 30 37 -1 -8
BITMAP
00000000
00000000
00000000
00000000
00000000
00000000
00000000
00000000
00000000
00000000
00000000
00000000
00000000
003FFF00
003FFF00
00380700
00700E00
00700E00
00700E00
00E01C00
00E01C00
00E01C00
01C03800
01C03800
01C03800
03807000
03807000
03807000
0700E000
00000000
00000000
00000000
00000000
00000000
00000000
00000000
00000000
ENDCHAR
STARTCHAR cyr-er
ENCODING 210
SWIDTH 486 0
DWIDTH 18 0
BBX 30 37 -1 -8
BITMAP
00000000
00000000
00000000
00000000
00000000
00000000
00000000
00000000
00000000
00000000
00000000
00000000
00000000
0039F800
003FFE00
003F1F00
00780E00
00780F00
00700700
00E00E00
00E00E00
00E00E00
01C01C00
01C01C00
01E03C00
03C07000
03F1F000
03FFE000
073F0000
07000000
07000000
0E000000
0E000000
0E000000
1C000000
00000000
00000000
ENDCHAR
STARTCHAR cyr-es
ENCODING 211
SWIDTH 432 0
DWIDTH 16 0
BBX 28 37 -1 -8
BITMAP
00000000
00000000
00000000
00000000
00000000
00000000
00000000
00000000
00000000
00000000
00000000
00000000
00000000
0007F800
001FFE00
003E1F00
00700E00
00F00E00
00E00000
01C00000
01C00000
01C00000
03800000
03800000
03C03800
03807000
03E1F000
01FFE000
00FF0000
00000000
00000000
00000000
00000000
00000000
00000000
00000000
00000000
ENDCHAR
STARTCHAR cyr-te
ENCODING 212
SWIDTH 486 0
DWIDTH 18 0
BBX 30 37 -1 -8
BITMAP
00000000
00000000
00000000
00000000
00000000
00000000
00000000
00000000
00000000
00000000
00000000
00000000
00000000
007FFF80
007FFF80
0000E000
0001C000
0001C000
0001C000
00038000
00038000
00038000
00070000
00070000
00070000
000E0000
000E0000
000E0000
001C0000
00000000
00000000
00000000
00000000
00000000
00000000
00000000
00000000
ENDCHAR
STARTCHAR cyr-u
ENCODING 213
SWIDTH 405 0
DWIDTH 15 0
BBX 27 37 -1 -8
BITMAP
00000000
00000000
00000000
00000000
00000000
00000000
00000000
00000000
00000000
00000000
00000000
00000000
00000000
00E00E00
00E00E00
00E00E00
00E03800
00E03800
00707000
00E0E000
0071C000
0071C000
00770000
00770000
003E0000
007C0000
00380000
00380000
00E00000
00E00000
01C00000
03800000
07000000
0F000000
7C000000
70000000
00000000
ENDCHAR
STARTCHAR cyr-ef
ENCODING 198
SWIDTH 567 0
DWIDTH 21 0
BBX 33 37 -1 -8
BITMAP
0000000000
0000000000
0000000000
0000000000
0000000000
0000000000
0000000000
0000000000
0000000000
0000000000
0000000000
0000000000
0000380000
0007FF0000
001FFFC000
003E73E000
0070E1C000
00F0E1E000
00E0E0E000
01C1C1C000
01C1C1C000
01C1C1C000
0383838000
0383838000
03C3878000
03870E0000
03E73E0000
01FFFC0000
00FFE00000
000E000000
000E000000
001C000000
001C000000
001C000000
0038000000
0000000000
0000000000
ENDCHAR
STARTCHAR cyr-kha
ENCODING 200
SWIDTH 405 0
DWIDTH 15 0
BBX 27 37 -1 -8
BITMAP
00000000
00000000
00000000
00000000
00000000
00000000
00000000
00000000
00000000
00000000
00000000
00000000
00000000
00E00E00
00F01E00
00783C00
0078F000
0038E000
003DE000
003F8000
001F0000
001F0000
007F0000
00F78000
00E38000
03C78000
0783C000
0F01E000
1C01C000
00000000
00000000
00000000
00000000
00000000
00000000
00000000
00000000
ENDCHAR
STARTCHAR cyr-tse
ENCODING 195
SWIDTH 513 0
DWIDTH 19 0
BBX 31 37 -1 -8
BITMAP
00000000
00000000
00000000
00000000
00000000
00000000
00000000
00000000
00000000
00000000
00000000
00000000
00000000
00380700
00380700
00380700
00700E00
00700E00
00700E00
00E01C00
00E01C00
00E01C00
01C03800
01C03800
01C03800
03807000
03807000
03FFFC00
07FFF800
00003800
00003800
00007000
00000000
00000000
00000000
00000000
00000000
ENDCHAR
STARTCHAR cyr-che
ENCODING 222
SWIDTH 486 0
DWIDTH 18 0
BBX 30 37 -1 -8
BITMAP
00000000
00000000
00000000
00000000
00000000
00000000
00000000
00000000
00000000
00000000
00000000
00000000
00000000
00380700
00380700
00380700
00700E00
00700E00
00700E00
00E01C00
00FFFC00
007FFC00
00003800
00003800
00003800
00007000
00007000
00007000
0000E000
00000000
00000000
00000000
00000000
00000000
00000000
00000000
00000000
ENDCHAR
STARTCHAR cyr-sha
ENCODING 219
SWIDTH 675 0
DWIDTH 25 0
BBX 37 37 -1 -8
BITMAP
0000000000
0000000000
0000000000
0000000000
0000000000
0000000000
0000000000
0000000000
0000000000
0000000000
0000000000
0000000000
0000000000
00381C0E00
00381C0E00
00381C0E00
0070381C00
0070381C00
0070381C00
00E0703800
00E0703800
00E0703800
01C0E07000
01C0E07000
01C0E07000
0381C0E000
0381C0E000
03FFFFE000
07FFFFC000
0000000000
0000000000
0000000000
0000000000
0000000000
0000000000
0000000000
0000000000
ENDCHAR
STARTCHAR cyr-shcha
ENCODING 221
SWIDTH 702 0
DWIDTH 26 0
BBX 38 37 -1 -8
BITMAP
0000000000
0000000000
0000000000
0000000000
0000000000
0000000000
0000000000
0000000000
0000000000
0000000000
0000000000
0000000000
0000000000
00381C0E00
00381C0E00
00381C0E00
0070381C00
0070381C00
0070381C00
00E0703800
00E0703800
00E0703800
01C0E07000
01C0E07000
01C0E07000
0381C0E000
0381C0E000
03FFFFF800
07FFFFF000
0000007000
0000007000
000000E000
0000000000
0000000000
0000000000
0000000000
0000000000
ENDCHAR
STARTCHAR cyr-ier
ENCODING 223
SWIDTH 540 0
DWIDTH 20 0
BBX 32 37 -1 -8
BITMAP
00000000
00000000
00000000
00000000
00000000
00000000
00000000
00000000
00000000
00000000
00000000
00000000
00000000
007E0000
007E0000
000E0000
001C0000
001C0000
001C0000
00380000
003FFE00
003FFF00
00700F00
00700700
00700700
00E00E00
00E01E00
00FFFC00
01FFF000
00000000
00000000
00000000
00000000
00000000
00000000
00000000
00000000
ENDCHAR
STARTCHAR cyr-iery
ENCODING 217
SWIDTH 621 0
DWIDTH 23 0
BBX 35 37 -1 -8
BITMAP
0000000000
0000000000
0000000000
0000000000
0000000000
0000000000
0000000000
0000000000
0000000000
0000000000
0000000000
0000000000
0000000000
0038003800
0038003800
0038003800
0070007000
0070007000
0070007000
00E000E000
00FFF8E000
00FFFCE000
01C03DC000
01C01DC000
01C01DC000
03803B8000
03807B8000
03FFF38000
07FFC70000
0000000000
0000000000
0000000000
0000000000
0000000000
0000000000
0000000000
0000000000
ENDCHAR
STARTCHAR cyr-ierik
ENCODING 216
SWIDTH 486 0
DWIDTH 18 0
BBX 30 37 -1 -8
BITMAP
00000000
00000000
00000000
00000000
00000000
00000000
00000000
00000000
00000000
00000000
00000000
00000000
00000000
00380000
00380000
00380000
00700000
00700000
00700000
00E00000
00FFF800
00FFFC00
01C03C00
01C01C00
01C01C00
03803800
03807800
03FFF000
07FFC000
00000000
00000000
00000000
00000000
00000000
00000000
00000000
00000000
ENDCHAR
STARTCHAR cyr-e-rev
ENCODING 220
SWIDTH 459 0
DWIDTH 17 0
BBX 29 37 -1 -8
BITMAP
00000000
00000000
00000000
00000000
00000000
00000000
00000000
00000000
00000000
00000000
00000000
00000000
00000000
000FF000
003FFC00
007C3E00
00E01C00
00001E00
00000E00
00001C00
0007FC00
0007FC00
00003800
00003800
00007800
0700E000
07C3E000
03FFC000
01FE0000
00000000
00000000
00000000
00000000
00000000
00000000
00000000
00000000
ENDCHAR
STARTCHAR cyr-yu
ENCODING 192
SWIDTH 621 0
DWIDTH 23 0
BBX 35 37 -1 -8
BITMAP
0000000000
0000000000
0000000000
0000000000
0000000000
0000000000
0000000000
0000000000
0000000000
0000000000
0000000000
0000000000
0000000000
00383F8000
0038FFE000
0039F1F000
007380E000
007780F000
0077007000
00EE00E000
00FE00E000
00FE00E000
01DC01C000
01DC01C000
01DE03C000
039C070000
039F1F0000
038FFE0000
0707F00000
0000000000
0000000000
0000000000
0000000000
0000000000
0000000000
0000000000
0000000000
ENDCHAR
STARTCHAR cyr-ya
ENCODING 209
SWIDTH 459 0
DWIDTH 17 0
BBX 29 37 -1 -8
BITMAP
00000000
00000000
00000000
00000000
00000000
00000000
00000000
00000000
00000000
00000000
00000000
00000000
00000000
001FFE00
003FFE00
00780E00
00E01C00
00E01C00
00E01C00
01E03800
00FFF800
007FF800
001E7000
003C7000
00787000
01E0E000
03C0E000
0780E000
0E01C000
00000000
00000000
00000000
00000000
00000000
00000000
00000000
00000000
ENDCHAR
ENDFONT
